<svg width="17" height="16" viewBox="0 0 17 16" fill="none" xmlns="http://www.w3.org/2000/svg">
<path d="M8.5 0.25C7.10417 0.25 5.8125 0.604167 4.625 1.3125C3.4375 2 2.48958 2.9375 1.78125 4.125C1.09375 5.3125 0.75 6.60417 0.75 8C0.75 9.39583 1.09375 10.6875 1.78125 11.875C2.48958 13.0625 3.4375 14 4.625 14.6875C5.8125 15.3958 7.10417 15.75 8.5 15.75C9.89583 15.75 11.1875 15.3958 12.375 14.6875C13.5625 14 14.5 13.0625 15.1875 11.875C15.8958 10.6875 16.25 9.39583 16.25 8C16.25 6.60417 15.8958 5.3125 15.1875 4.125C14.5 2.9375 13.5625 2 12.375 1.3125C11.1875 0.604167 9.89583 0.25 8.5 0.25ZM8.5 3.6875C8.85417 3.6875 9.15625 3.82292 9.40625 4.09375C9.67708 4.34375 9.8125 4.64583 9.8125 5C9.8125 5.35417 9.67708 5.66667 9.40625 5.9375C9.15625 6.1875 8.85417 6.3125 8.5 6.3125C8.14583 6.3125 7.83333 6.1875 7.5625 5.9375C7.3125 5.66667 7.1875 5.35417 7.1875 5C7.1875 4.64583 7.3125 4.34375 7.5625 4.09375C7.83333 3.82292 8.14583 3.6875 8.5 3.6875ZM10.25 11.625C10.25 11.7292 10.2083 11.8229 10.125 11.9062C10.0625 11.9688 9.97917 12 9.875 12H7.125C7.02083 12 6.92708 11.9688 6.84375 11.9062C6.78125 11.8229 6.75 11.7292 6.75 11.625V10.875C6.75 10.7708 6.78125 10.6875 6.84375 10.625C6.92708 10.5417 7.02083 10.5 7.125 10.5H7.5V8.5H7.125C7.02083 8.5 6.92708 8.46875 6.84375 8.40625C6.78125 8.32292 6.75 8.22917 6.75 8.125V7.375C6.75 7.27083 6.78125 7.1875 6.84375 7.125C6.92708 7.04167 7.02083 7 7.125 7H9.125C9.22917 7 9.3125 7.04167 9.375 7.125C9.45833 7.1875 9.5 7.27083 9.5 7.375V10.5H9.875C9.97917 10.5 10.0625 10.5417 10.125 10.625C10.2083 10.6875 10.25 10.7708 10.25 10.875V11.625Z" fill="#ED6A4E"/>
</svg>
