<svg width="16" height="16" viewBox="0 0 16 16" fill="none" xmlns="http://www.w3.org/2000/svg">
<path d="M2.5 2.53125C4.02083 1.01042 5.85417 0.25 8 0.25C10.1458 0.25 11.9688 1.01042 13.4688 2.53125C14.9896 4.03125 15.75 5.85417 15.75 8C15.75 10.1458 14.9896 11.9792 13.4688 13.5C11.9688 15 10.1458 15.75 8 15.75C5.85417 15.75 4.02083 15 2.5 13.5C1 11.9792 0.25 10.1458 0.25 8C0.25 5.85417 1 4.03125 2.5 2.53125ZM7.65625 7.75L8.1875 6.84375C8.20833 6.80208 8.25 6.78125 8.3125 6.78125C8.375 6.78125 8.41667 6.8125 8.4375 6.875C8.47917 6.95833 8.55208 7 8.65625 7H8.75C8.91667 7 9 6.91667 9 6.75V4.3125C9 4.10417 8.90625 3.95833 8.71875 3.875L8.375 3.6875C8.29167 3.64583 8.25 3.58333 8.25 3.5C8.25 3.39583 8.28125 3.3125 8.34375 3.25L9.9375 2.0625C9.29167 1.85417 8.64583 1.75 8 1.75C6.27083 1.75 4.79167 2.36458 3.5625 3.59375C2.35417 4.80208 1.75 6.27083 1.75 8C1.75 8.3125 1.78125 8.64583 1.84375 9H3.78125C3.92708 9 4.05208 8.94792 4.15625 8.84375L4.75 8.25C4.8125 8.1875 4.88542 8.16667 4.96875 8.1875C5.05208 8.1875 5.11458 8.22917 5.15625 8.3125L5.875 9.71875C5.95833 9.90625 6.10417 10 6.3125 10H6.5C6.64583 10 6.76042 9.95833 6.84375 9.875C6.94792 9.77083 7 9.64583 7 9.5V9.21875C7 9.07292 6.94792 8.94792 6.84375 8.84375L6.6875 8.6875C6.5625 8.5625 6.5625 8.4375 6.6875 8.3125L6.84375 8.15625C6.94792 8.05208 7.07292 8 7.21875 8C7.40625 8 7.55208 7.91667 7.65625 7.75ZM13 11.1875V10.4375C13 10.2917 12.9479 10.1771 12.8438 10.0938L12.4688 9.71875C12.4271 9.65625 12.4062 9.59375 12.4062 9.53125V9.125C12.4062 9.04167 12.3646 9 12.2812 9H12.0938C12.0312 9 11.9896 9.03125 11.9688 9.09375L11.8438 9.53125C11.8229 9.59375 11.7812 9.625 11.7188 9.625H11.5938C11.5521 9.625 11.5208 9.60417 11.5 9.5625L11.3125 9.15625C11.2708 9.05208 11.1979 9 11.0938 9H10.7188C10.6562 9 10.6042 9.01042 10.5625 9.03125L9.8125 9.5625C9.77083 9.60417 9.71875 9.63542 9.65625 9.65625L8.4375 10.1562C8.3125 10.1979 8.25 10.2812 8.25 10.4062V10.7188C8.25 10.7812 8.28125 10.8333 8.34375 10.875L8.71875 11.25C8.80208 11.3542 8.91667 11.4062 9.0625 11.4062H9.375C9.41667 11.4062 9.45833 11.4062 9.5 11.4062L10.1875 11.2188C10.25 11.1979 10.3125 11.1875 10.375 11.1875C10.6042 11.1875 10.8021 11.2708 10.9688 11.4375L11.375 11.8438C11.4792 11.9479 11.5938 12 11.7188 12H12.1875C12.3333 12 12.4583 11.9479 12.5625 11.8438L12.8438 11.5625C12.9479 11.4583 13 11.3333 13 11.1875Z" fill="#5F9EFF"/>
</svg>
