<svg width="16" height="15" viewBox="0 0 16 15" fill="none" xmlns="http://www.w3.org/2000/svg">
<path fill-rule="evenodd" clip-rule="evenodd" d="M12.1032 4.06483L15.7042 7.70871C15.8826 7.89065 15.8702 8.19386 15.7042 8.36151C15.6128 8.43643 15.505 8.47924 15.3806 8.47924C15.2395 8.47924 15.1313 8.43643 15.057 8.36151L14.7016 8H13.663V14.5561C13.663 14.7986 13.4639 15.0002 13.2233 15.0002H9.0912C8.83399 15.0002 8.63485 14.7986 8.63485 14.5561V11.9894H7.19119V14.5561C7.19119 14.7986 6.99206 15.0002 6.7515 15.0002H2.60277C2.36222 15.0002 2.16309 14.7986 2.16309 14.5561V8.01917C2.16309 8.01275 2.16323 8.00636 2.1635 8H2H1.06141L0.769213 8.29373C0.590259 8.47387 0.304558 8.48635 0.138695 8.29373C-0.0521087 8.12785 -0.0402595 7.8389 0.138695 7.65876L7.59785 0.142702C7.68903 0.0517216 7.79699 0 7.92143 0C8.02924 0 8.13736 0.0499487 8.22837 0.142702L11.1987 3.15342V1.58028C11.1987 1.32168 11.3979 1.12191 11.6386 1.12191C11.8958 1.12191 12.1032 1.32165 12.1032 1.58028V4.06483Z" fill="#3784FF"/>
</svg>
