<svg width="16" height="15" viewBox="0 0 16 15" fill="none" xmlns="http://www.w3.org/2000/svg">
<path d="M13.2231 7.35059C12.9659 7.35059 12.7667 7.55035 12.7667 7.81073V14.0961H9.53083V11.5295C9.53083 11.2888 9.33169 11.0783 9.09096 11.0783H6.75126C6.49389 11.0783 6.2866 11.2887 6.2866 11.5295V14.0961H3.05885V8.01942C3.05885 7.77682 2.8599 7.5753 2.60253 7.5753C2.36198 7.5753 2.16284 7.77682 2.16284 8.01942V14.5563C2.16284 14.7989 2.36198 15.0004 2.60253 15.0004H6.75126C6.99181 15.0004 7.19095 14.7989 7.19095 14.5563V11.9897H8.63461V14.5563C8.63461 14.7989 8.83374 15.0004 9.09096 15.0004H13.2231C13.4636 15.0004 13.6627 14.7989 13.6627 14.5563V7.81076C13.6627 7.55038 13.4636 7.35059 13.2231 7.35059Z" fill="#999999"/>
<path d="M15.7042 7.70871L12.1032 4.06483V1.58028C12.1032 1.32165 11.8958 1.12191 11.6386 1.12191C11.3979 1.12191 11.1987 1.32168 11.1987 1.58028V3.15342L8.22837 0.142702C8.13736 0.0499484 8.02924 0 7.92143 0C7.79699 0 7.68903 0.0517211 7.59785 0.142702L0.138695 7.65876C-0.0402595 7.8389 -0.0521087 8.12785 0.138695 8.29373C0.304558 8.48635 0.590259 8.47387 0.769213 8.29373L7.92143 1.10405L15.057 8.36151C15.1313 8.43643 15.2395 8.47924 15.3806 8.47924C15.505 8.47924 15.6128 8.43643 15.7042 8.36151C15.8702 8.19386 15.8826 7.89065 15.7042 7.70871Z" fill="#999999"/>
</svg>
