<svg width="15" height="14" viewBox="0 0 15 14" fill="none" xmlns="http://www.w3.org/2000/svg">
<path d="M8.59375 12.9062L7.875 13.5938C7.72917 13.7396 7.55208 13.8125 7.34375 13.8125C7.13542 13.8125 6.95833 13.7396 6.8125 13.5938L0.75 7.53125C0.604167 7.38542 0.53125 7.20833 0.53125 7C0.53125 6.79167 0.604167 6.61458 0.75 6.46875L6.8125 0.40625C6.95833 0.260417 7.13542 0.1875 7.34375 0.1875C7.55208 0.1875 7.72917 0.260417 7.875 0.40625L8.59375 1.09375C8.73958 1.23958 8.80208 1.41667 8.78125 1.625C8.78125 1.83333 8.70833 2.01042 8.5625 2.15625L4.8125 5.75H13.7812C13.9896 5.75 14.1667 5.82292 14.3125 5.96875C14.4583 6.11458 14.5312 6.29167 14.5312 6.5V7.5C14.5312 7.70833 14.4583 7.88542 14.3125 8.03125C14.1667 8.17708 13.9896 8.25 13.7812 8.25H4.8125L8.5625 11.8438C8.70833 11.9896 8.78125 12.1667 8.78125 12.375C8.80208 12.5833 8.73958 12.7604 8.59375 12.9062Z" fill="#323232"/>
</svg>
