<svg width="40" height="40" viewBox="0 0 40 40" fill="none" xmlns="http://www.w3.org/2000/svg">
<path d="M38.8088 22.8789C34.7055 16.3811 35.2544 9.79224 33.2766 6.66113C31.2988 3.53001 25.3455 -1.90999 10.94 7.18668C-3.4656 16.2833 0.00662093 26.4645 2.18218 29.9089C12.3666 46.0367 46.0755 34.3878 38.8088 22.8789Z" fill="#EFEFEF"/>
<path d="M32.5 13.0556V26.9445C32.5 28.1723 31.5056 29.1667 30.2778 29.1667H9.72222C8.49444 29.1667 7.5 28.1723 7.5 26.9445V13.0556C7.5 11.8278 8.49444 10.8334 9.72222 10.8334H30.2778C31.5056 10.8334 32.5 11.8278 32.5 13.0556Z" fill="#F3F3F1"/>
<path d="M10 26.9445V13.0556C10 11.8278 10.9944 10.8334 12.2222 10.8334H9.72222C8.49444 10.8334 7.5 11.8278 7.5 13.0556V26.9445C7.5 28.1723 8.49444 29.1667 9.72222 29.1667H12.2222C10.9944 29.1667 10 28.1723 10 26.9445Z" fill="#D5DBE1"/>
<path d="M15 19.1667C16.0739 19.1667 16.9444 18.2961 16.9444 17.2222C16.9444 16.1483 16.0739 15.2778 15 15.2778C13.9261 15.2778 13.0555 16.1483 13.0555 17.2222C13.0555 18.2961 13.9261 19.1667 15 19.1667Z" fill="#5797EF"/>
<path d="M16.9445 21.9445H13.0556C11.8278 21.9445 10.8334 22.9389 10.8334 24.1667V24.7222H19.1667V24.1667C19.1667 22.9389 18.1723 21.9445 16.9445 21.9445Z" fill="#5797EF"/>
<path opacity="0.3" d="M15.5556 21.9445H13.0556C11.8278 21.9445 10.8334 22.9389 10.8334 24.1667V24.7222H13.3334V24.1667C13.3334 22.9389 14.3278 21.9445 15.5556 21.9445Z" fill="black"/>
<path opacity="0.3" d="M15 19.1667C15.4789 19.1667 15.9111 18.9867 16.25 18.7C15.8289 18.3433 15.5555 17.8178 15.5555 17.2222C15.5555 16.6267 15.8289 16.1011 16.25 15.7444C15.9111 15.4578 15.4789 15.2778 15 15.2778C13.9267 15.2778 13.0555 16.1489 13.0555 17.2222C13.0555 18.2955 13.9267 19.1667 15 19.1667Z" fill="black"/>
<path d="M33.2985 6.11108L34.8698 4.53974L35.6555 5.32541L34.0841 6.89676L33.2985 6.11108Z" fill="#A4AFC1"/>
<path d="M28.7787 5.12384L29.5644 4.33817L31.1357 5.90951L30.35 6.69519L28.7787 5.12384Z" fill="#A4AFC1"/>
<path d="M33.2957 9.64166L34.0813 8.85599L35.6527 10.4273L34.867 11.213L33.2957 9.64166Z" fill="#A4AFC1"/>
<path d="M30.2777 30H9.72218C8.03663 30 6.66663 28.63 6.66663 26.9444V13.0556C6.66663 11.37 8.03663 10 9.72218 10H30.2777C31.9633 10 33.3333 11.37 33.3333 13.0556V26.9444C33.3333 28.63 31.9633 30 30.2777 30ZM9.72218 11.6667C8.95663 11.6667 8.33329 12.29 8.33329 13.0556V26.9444C8.33329 27.71 8.95663 28.3333 9.72218 28.3333H30.2777C31.0433 28.3333 31.6666 27.71 31.6666 26.9444V13.0556C31.6666 12.29 31.0433 11.6667 30.2777 11.6667H9.72218Z" fill="#25313F"/>
<path d="M14.9999 20C13.4688 20 12.2222 18.7533 12.2222 17.2222C12.2222 15.6911 13.4688 14.4444 14.9999 14.4444C16.5311 14.4444 17.7777 15.6911 17.7777 17.2222C17.7777 18.7533 16.5311 20 14.9999 20ZM14.9999 16.1111C14.3877 16.1111 13.8888 16.61 13.8888 17.2222C13.8888 17.8344 14.3877 18.3333 14.9999 18.3333C15.6122 18.3333 16.1111 17.8344 16.1111 17.2222C16.1111 16.61 15.6122 16.1111 14.9999 16.1111Z" fill="#25313F"/>
<path d="M20 24.7222H18.3333V24.1666C18.3333 23.4011 17.71 22.7778 16.9444 22.7778H13.0556C12.29 22.7778 11.6667 23.4011 11.6667 24.1666V24.7222H10V24.1666C10 22.4811 11.37 21.1111 13.0556 21.1111H16.9444C18.63 21.1111 20 22.4811 20 24.1666V24.7222Z" fill="#25313F"/>
<path d="M23.0555 15H29.1667V16.6667H23.0555V15Z" fill="#25313F"/>
<path d="M23.0555 19.4445H29.1667V21.1111H23.0555V19.4445Z" fill="#25313F"/>
<path d="M23.0555 23.8889H29.1667V25.5556H23.0555V23.8889Z" fill="#25313F"/>
</svg>
