<svg width="40" height="40" viewBox="0 0 40 40" fill="none" xmlns="http://www.w3.org/2000/svg">
<path d="M3.82444 26.5367C10.5589 30.24 13.2655 36.2711 16.51 38.0555C19.7555 39.84 27.5967 41.7211 35.8055 26.7922C44.0144 11.8633 36.0511 4.6311 32.4811 2.66777C15.7678 -6.52112 -8.10223 19.9789 3.82444 26.5367Z" fill="#EFEFEF"/>
<path d="M29.1783 4.85144L29.964 4.06577L31.5354 5.63711L30.7497 6.42279L29.1783 4.85144Z" fill="#A4AFC1"/>
<path d="M33.6943 9.36926L34.4799 8.58359L36.0513 10.1549L35.2656 10.9406L33.6943 9.36926Z" fill="#A4AFC1"/>
<path d="M28.9811 10.1535L30.5525 8.58215L31.3382 9.36783L29.7668 10.9392L28.9811 10.1535Z" fill="#A4AFC1"/>
<path d="M33.499 5.63757L35.0703 4.06623L35.856 4.8519L34.2846 6.42325L33.499 5.63757Z" fill="#A4AFC1"/>
<path d="M18.8889 31.3889C25.1788 31.3889 30.2778 26.2899 30.2778 20C30.2778 13.7101 25.1788 8.61108 18.8889 8.61108C12.599 8.61108 7.5 13.7101 7.5 20C7.5 26.2899 12.599 31.3889 18.8889 31.3889Z" fill="#F3F3F1"/>
<path d="M10 20C10 14.1333 14.4378 9.30553 20.1389 8.68331C19.7278 8.63775 19.3122 8.61108 18.8889 8.61108C12.5989 8.61108 7.5 13.71 7.5 20C7.5 26.29 12.5989 31.3889 18.8889 31.3889C19.3122 31.3889 19.7278 31.3622 20.1389 31.3166C14.4378 30.6944 10 25.8666 10 20Z" fill="#D5DBE1"/>
<path d="M19.6444 25.7389C19.4644 25.5589 19.4266 25.2833 19.5378 25.0667L22.1033 20L19.5378 14.9333C19.4266 14.7156 19.4644 14.4411 19.6444 14.2611C19.8211 14.0845 20.0789 14.0478 20.2878 14.1422L32.1756 19.4711C32.2411 19.4956 32.2989 19.5367 32.3522 19.59C32.5778 19.8156 32.5778 20.1845 32.3522 20.41C32.2989 20.4633 32.2411 20.5045 32.1756 20.5289L20.2878 25.8578C20.0789 25.9522 19.82 25.9156 19.6444 25.7389Z" fill="#5797EF"/>
<path opacity="0.3" d="M22.0378 25.0667L24.6044 20L22.0378 14.9334C22.0366 14.9311 22.0378 14.9278 22.0366 14.9256L20.2878 14.1411C20.0789 14.0467 19.82 14.0834 19.6444 14.26C19.4644 14.44 19.4266 14.7145 19.5378 14.9322L22.1044 19.9989L19.5378 25.0656C19.4266 25.2834 19.4644 25.5578 19.6444 25.7378C19.8211 25.9145 20.0789 25.9511 20.2878 25.8567L22.0366 25.0722C22.0378 25.0711 22.0366 25.0689 22.0378 25.0667Z" fill="black"/>
<path d="M18.8733 32.2222C12.1345 32.2222 6.65112 26.7389 6.65112 20C6.65112 13.2611 12.1345 7.77777 18.8733 7.77777C23.4745 7.77777 27.6322 10.3167 29.7245 14.4033L28.2411 15.1633C26.4356 11.6355 22.8456 9.44444 18.8733 9.44444C13.0533 9.44444 8.31779 14.18 8.31779 20C8.31779 25.82 13.0533 30.5555 18.8733 30.5555C22.8389 30.5555 26.4289 28.3678 28.2411 24.8467L29.7233 25.61C27.6233 29.6878 23.4656 32.2222 18.8733 32.2222Z" fill="#25313F"/>
<path d="M20.0555 26.7411C19.6877 26.7411 19.3244 26.5978 19.0544 26.3278C19.0544 26.3278 19.0544 26.3278 19.0533 26.3267C18.62 25.8922 18.5166 25.2344 18.7955 24.6878L21.1688 20L18.7944 15.31C18.5166 14.7656 18.6211 14.1067 19.0533 13.6733C19.4666 13.26 20.1 13.1433 20.63 13.3833L32.5144 18.7111C32.6422 18.7578 32.8 18.8622 32.9389 19.0011C33.49 19.5522 33.49 20.4489 32.9389 21C32.8 21.1389 32.6411 21.2433 32.47 21.3089L20.6266 26.6189C20.4455 26.7011 20.25 26.7411 20.0555 26.7411ZM20.2822 25.4422C20.2811 25.4422 20.2811 25.4422 20.2822 25.4422V25.4422ZM19.9455 25.0978H19.9444H19.9455ZM20.6055 15.1978L22.8466 19.6233C22.9666 19.86 22.9666 20.14 22.8466 20.3767L20.6055 24.8022L31.32 20L20.6055 15.1978ZM31.8355 20.2311C31.8477 20.2378 31.8622 20.2444 31.8789 20.2511L31.8355 20.2311ZM31.8344 19.7689C31.83 19.77 31.8255 19.7722 31.8211 19.7744L31.8344 19.7689ZM19.9466 14.9033H19.9477H19.9466ZM20.28 14.5544L20.2811 14.5556C20.28 14.5556 20.28 14.5556 20.28 14.5544Z" fill="#25313F"/>
</svg>
