<svg width="24" height="24" viewBox="0 0 24 24" fill="none" xmlns="http://www.w3.org/2000/svg">
<rect width="24" height="24" rx="6" fill="#3784FF"/>
<path d="M18.1155 18.4614C18.3463 18.4614 18.4617 18.5768 18.4617 18.8075V19.3845H5.53857V18.8075C5.53857 18.5768 5.65396 18.4614 5.88473 18.4614H6.46165V5.30754C6.46165 5.11523 6.52896 4.95177 6.66357 4.81716C6.79819 4.68254 6.96165 4.61523 7.15396 4.61523H16.8463C17.0386 4.61523 17.202 4.68254 17.3367 4.81716C17.4713 4.95177 17.5386 5.11523 17.5386 5.30754V18.4614H18.1155ZM9.23088 6.80754V7.96139C9.23088 8.19216 9.34627 8.30754 9.57704 8.30754H10.7309C10.9617 8.30754 11.077 8.19216 11.077 7.96139V6.80754C11.077 6.57677 10.9617 6.46139 10.7309 6.46139H9.57704C9.34627 6.46139 9.23088 6.57677 9.23088 6.80754ZM9.23088 9.57677V10.7306C9.23088 10.9614 9.34627 11.0768 9.57704 11.0768H10.7309C10.9617 11.0768 11.077 10.9614 11.077 10.7306V9.57677C11.077 9.346 10.9617 9.23062 10.7309 9.23062H9.57704C9.34627 9.23062 9.23088 9.346 9.23088 9.57677ZM10.7309 13.846C10.9617 13.846 11.077 13.7306 11.077 13.4999V12.346C11.077 12.1152 10.9617 11.9998 10.7309 11.9998H9.57704C9.34627 11.9998 9.23088 12.1152 9.23088 12.346V13.4999C9.23088 13.7306 9.34627 13.846 9.57704 13.846H10.7309ZM12.9232 18.4614V16.0383C12.9232 15.8075 12.8078 15.6922 12.577 15.6922H11.4232C11.1924 15.6922 11.077 15.8075 11.077 16.0383V18.4614H12.9232ZM14.7693 13.4999V12.346C14.7693 12.1152 14.654 11.9998 14.4232 11.9998H13.2693C13.0386 11.9998 12.9232 12.1152 12.9232 12.346V13.4999C12.9232 13.7306 13.0386 13.846 13.2693 13.846H14.4232C14.654 13.846 14.7693 13.7306 14.7693 13.4999ZM14.7693 10.7306V9.57677C14.7693 9.346 14.654 9.23062 14.4232 9.23062H13.2693C13.0386 9.23062 12.9232 9.346 12.9232 9.57677V10.7306C12.9232 10.9614 13.0386 11.0768 13.2693 11.0768H14.4232C14.654 11.0768 14.7693 10.9614 14.7693 10.7306ZM14.7693 7.96139V6.80754C14.7693 6.57677 14.654 6.46139 14.4232 6.46139H13.2693C13.0386 6.46139 12.9232 6.57677 12.9232 6.80754V7.96139C12.9232 8.19216 13.0386 8.30754 13.2693 8.30754H14.4232C14.654 8.30754 14.7693 8.19216 14.7693 7.96139Z" fill="white"/>
</svg>
