<svg width="15" height="12" viewBox="0 0 15 12" fill="none" xmlns="http://www.w3.org/2000/svg">
<path d="M14.0898 6.21484C14.3359 5.96875 14.3359 5.55859 14.0898 5.28516L9.49609 0.691406C9.05859 0.28125 8.375 0.582031 8.375 1.15625V3.78125H4.65625C4.27344 3.78125 4 4.08203 4 4.4375V7.0625C4 7.44531 4.27344 7.71875 4.65625 7.71875H8.375V10.3438C8.375 10.9453 9.08594 11.2188 9.49609 10.8086L14.0898 6.21484ZM5.75 10.6719V9.57812C5.75 9.41406 5.58594 9.25 5.42188 9.25H3.125C2.63281 9.25 2.25 8.86719 2.25 8.375V3.125C2.25 2.66016 2.63281 2.25 3.125 2.25H5.42188C5.58594 2.25 5.75 2.11328 5.75 1.92188V0.828125C5.75 0.664062 5.58594 0.5 5.42188 0.5H3.125C1.67578 0.5 0.5 1.67578 0.5 3.125V8.375C0.5 9.82422 1.67578 11 3.125 11H5.42188C5.58594 11 5.75 10.8633 5.75 10.6719Z" fill="#2F79F6"/>
</svg>
