<svg width="9" height="13" viewBox="0 0 9 13" fill="none" xmlns="http://www.w3.org/2000/svg">
<path d="M7.91797 7.21484L2.61328 12.5195C2.48568 12.6471 2.33073 12.7109 2.14844 12.7109C1.96615 12.7109 1.8112 12.6471 1.68359 12.5195L1.08203 11.918C0.954427 11.7904 0.88151 11.6354 0.863281 11.4531C0.863281 11.2708 0.927083 11.1159 1.05469 10.9883L5.29297 6.75L1.05469 2.51172C0.927083 2.38411 0.863281 2.22917 0.863281 2.04688C0.88151 1.86458 0.954427 1.70964 1.08203 1.58203L1.68359 0.980469C1.8112 0.852865 1.96615 0.789062 2.14844 0.789062C2.33073 0.789062 2.48568 0.852865 2.61328 0.980469L7.91797 6.28516C8.0638 6.41276 8.13672 6.56771 8.13672 6.75C8.13672 6.93229 8.0638 7.08724 7.91797 7.21484Z" fill="#A1A1A1"/>
</svg>
