<svg width="13" height="15" viewBox="0 0 13 15" fill="none" xmlns="http://www.w3.org/2000/svg">
<path d="M6.5 7.75C8.41406 7.75 10 6.19141 10 4.25C10 2.33594 8.41406 0.75 6.5 0.75C4.55859 0.75 3 2.33594 3 4.25C3 6.19141 4.55859 7.75 6.5 7.75ZM8.93359 8.625H8.46875C7.86719 8.92578 7.21094 9.0625 6.5 9.0625C5.78906 9.0625 5.10547 8.92578 4.50391 8.625H4.03906C2.01562 8.625 0.375 10.293 0.375 12.3164V13.4375C0.375 14.1758 0.949219 14.75 1.6875 14.75H11.3125C12.0234 14.75 12.625 14.1758 12.625 13.4375V12.3164C12.625 10.293 10.957 8.625 8.93359 8.625Z" fill="#2F79F6"/>
</svg>
