<svg width="30" height="30" viewBox="0 0 30 30" fill="none" xmlns="http://www.w3.org/2000/svg">
<g clip-path="url(#clip0)">
<path d="M23.7097 13.0449V27.5804C23.7097 28.0937 23.5058 28.586 23.1428 28.949C22.7798 29.3119 22.2875 29.5158 21.7742 29.5158H20.8065V29.0804C20.807 27.0513 20.099 25.0857 18.8048 23.5229C17.5106 21.9602 15.7114 20.8983 13.7178 20.5207C14.7893 20.1346 15.6881 19.3794 16.2531 18.3904C16.8182 17.4015 17.0123 16.2437 16.8009 15.1246C16.5894 14.0054 15.9861 12.9983 15.0992 12.2837C14.2123 11.5692 13.0998 11.194 11.9613 11.2255C10.7478 11.2717 9.59593 11.7725 8.73452 12.6286C7.8731 13.4846 7.36508 14.6333 7.31131 15.8465C7.27311 16.8609 7.55935 17.861 8.12844 18.7016C8.69752 19.5422 9.51981 20.1794 10.4758 20.5207C8.48219 20.8983 6.68297 21.9602 5.38877 23.5229C4.09456 25.0857 3.38661 27.0513 3.38711 29.0804V29.5158H2.41937C1.90605 29.5158 1.41375 29.3119 1.05078 28.949C0.687803 28.586 0.483887 28.0937 0.483887 27.5804V8.22552C0.483887 7.7122 0.687803 7.2199 1.05078 6.85693C1.41375 6.49396 1.90605 6.29004 2.41937 6.29004H16.9597C16.9419 6.45069 16.9338 6.61228 16.9355 6.77391C16.9355 8.44221 17.5982 10.0422 18.7779 11.2218C19.9576 12.4015 21.5575 13.0642 23.2258 13.0642C23.3903 13.0642 23.55 13.0594 23.7097 13.0449Z" fill="#57A4FF"/>
<path d="M30 6.77407C30.0014 5.06159 29.3538 3.41219 28.1876 2.15816C27.0214 0.904129 25.4233 0.138655 23.7153 0.0159483C22.0072 -0.106759 20.3161 0.42242 18.9826 1.49688C17.6491 2.57134 16.7724 4.11123 16.529 5.80633H2.41935C1.77794 5.8071 1.16301 6.06224 0.709461 6.51579C0.255911 6.96934 0.000768318 7.58427 0 8.22568V27.5805C0.000768318 28.2219 0.255911 28.8369 0.709461 29.2904C1.16301 29.744 1.77794 29.9991 2.41935 29.9999H21.7742C22.4156 29.9991 23.0305 29.744 23.4841 29.2904C23.9376 28.8369 24.1928 28.2219 24.1935 27.5805V13.4708C25.8041 13.2375 27.2769 12.4325 28.343 11.203C29.409 9.97343 29.9972 8.40141 30 6.77407ZM3.87097 29.0321C3.8819 27.1245 4.55583 25.28 5.7773 23.8146C6.99877 22.3492 8.69177 21.3542 10.5663 20.9999C10.6707 20.9802 10.7657 20.9267 10.8366 20.8476C10.9076 20.7686 10.9506 20.6684 10.9589 20.5625C10.9673 20.4566 10.9406 20.3509 10.8829 20.2617C10.8252 20.1725 10.7398 20.1048 10.6398 20.0689C9.7794 19.7622 9.03929 19.1889 8.52722 18.4325C8.01515 17.676 7.75784 16.7759 7.79274 15.8631C7.84438 14.773 8.3026 13.7419 9.07703 12.973C9.85146 12.2041 10.8859 11.7533 11.9763 11.7096C13 11.6811 14.0003 12.0185 14.7977 12.661C15.5952 13.3036 16.1375 14.2093 16.3275 15.2156C16.5174 16.2219 16.3425 17.263 15.8342 18.152C15.3258 19.041 14.5173 19.7198 13.5537 20.0665C13.4537 20.1023 13.3683 20.17 13.3106 20.2592C13.2529 20.3483 13.2261 20.454 13.2344 20.5599C13.2427 20.6658 13.2857 20.766 13.3566 20.8451C13.4275 20.9241 13.5224 20.9777 13.6268 20.9975C15.5012 21.3528 17.194 22.3485 18.4154 23.8142C19.6368 25.2798 20.311 27.1243 20.3226 29.0321H3.87097ZM23.2258 27.5805C23.2258 27.9655 23.0729 28.3347 22.8006 28.607C22.5284 28.8792 22.1592 29.0321 21.7742 29.0321H21.2903C21.2798 27.1213 20.6744 25.2612 19.5582 23.7102C18.442 22.1592 16.8705 20.9944 15.0619 20.3776C15.709 19.9377 16.25 19.3594 16.6459 18.6845C17.0417 18.0096 17.2825 17.2551 17.3507 16.4756C17.4189 15.6962 17.3128 14.9113 17.0401 14.178C16.7674 13.4446 16.335 12.7811 15.7742 12.2355C15.271 11.7412 14.6729 11.3539 14.0159 11.0972C13.3589 10.8405 12.6566 10.7196 11.9516 10.7418C10.6159 10.7949 9.34855 11.3467 8.39968 12.2883C7.45081 13.2299 6.88931 14.493 6.82597 15.8283C6.79247 16.7193 6.9861 17.6043 7.38867 18.3999C7.79123 19.1956 8.38951 19.8758 9.12726 20.3767C7.31904 20.9938 5.748 22.1589 4.63255 23.7101C3.51709 25.2613 2.91264 27.1215 2.90323 29.0321H2.41935C2.03436 29.0321 1.66514 28.8792 1.39291 28.607C1.12068 28.3347 0.967742 27.9655 0.967742 27.5805V8.22568C0.967742 7.84069 1.12068 7.47147 1.39291 7.19924C1.66514 6.92701 2.03436 6.77407 2.41935 6.77407H16.4516C16.4535 8.57011 17.1679 10.292 18.4378 11.562C19.7078 12.832 21.4298 13.5463 23.2258 13.5483V27.5805ZM23.2258 12.5805C22.0774 12.5805 20.9548 12.24 19.9999 11.602C19.045 10.9639 18.3008 10.0571 17.8613 8.9961C17.4219 7.93511 17.3069 6.76763 17.5309 5.64129C17.755 4.51495 18.308 3.48034 19.12 2.66829C19.9321 1.85624 20.9667 1.30323 22.093 1.07919C23.2194 0.855145 24.3868 0.970132 25.4478 1.40961C26.5088 1.84908 27.4157 2.59331 28.0537 3.54818C28.6917 4.50305 29.0323 5.62566 29.0323 6.77407C29.0306 8.31353 28.4183 9.78945 27.3297 10.878C26.2412 11.9666 24.7653 12.5789 23.2258 12.5805Z" fill="#004FAC"/>
<path fill-rule="evenodd" clip-rule="evenodd" d="M19.8386 6.77391C19.8386 6.50668 20.0553 6.29004 20.3225 6.29004H26.1289C26.3962 6.29004 26.6128 6.50668 26.6128 6.77391C26.6128 7.04114 26.3962 7.25778 26.1289 7.25778H20.3225C20.0553 7.25778 19.8386 7.04114 19.8386 6.77391Z" fill="#004FAC"/>
<path fill-rule="evenodd" clip-rule="evenodd" d="M23.2258 3.38721C23.4931 3.38721 23.7097 3.60384 23.7097 3.87108L23.7097 9.67753C23.7097 9.94476 23.4931 10.1614 23.2258 10.1614C22.9586 10.1614 22.742 9.94476 22.742 9.67753L22.742 3.87108C22.742 3.60384 22.9586 3.38721 23.2258 3.38721Z" fill="#004FAC"/>
</g>
<defs>
<clipPath id="clip0">
<rect width="30" height="30" fill="white"/>
</clipPath>
</defs>
</svg>
