<svg width="30" height="30" viewBox="0 0 30 30" fill="none" xmlns="http://www.w3.org/2000/svg">
<path d="M0.483887 15H4.83873V29.5161H25.1613V15H29.5161L15 0.483887L0.483887 15ZM22.5 17.4194C22.5 20.3587 20.3226 24.9194 15 24.9194C9.67743 24.9194 7.50002 20.3587 7.50002 17.4194C7.50002 14.4798 9.67743 9.91937 15 9.91937C20.3226 9.91937 22.5 13.7903 22.5 17.4194Z" fill="#57A4FF"/>
<path fill-rule="evenodd" clip-rule="evenodd" d="M15 24.6772C19.0085 24.6772 22.258 21.4277 22.258 17.4192C22.258 13.4106 19.0085 10.1611 15 10.1611C10.9915 10.1611 7.74191 13.4106 7.74191 17.4192C7.74191 21.4277 10.9915 24.6772 15 24.6772ZM15 25.645C19.543 25.645 23.2258 21.9622 23.2258 17.4192C23.2258 12.8762 19.543 9.19336 15 9.19336C10.457 9.19336 6.77417 12.8762 6.77417 17.4192C6.77417 21.9622 10.457 25.645 15 25.645Z" fill="#004FAC"/>
<path d="M17.5309 13.975L17.8333 13.0645L14.9999 13.6522L16.9316 15.7813L17.2109 14.9392C17.7337 15.3836 18.1067 15.9751 18.28 16.6345C18.4532 17.2939 18.4185 17.9898 18.1804 18.6292C17.9423 19.2686 17.5122 19.8209 16.9477 20.2124C16.3831 20.604 15.711 20.8159 15.0211 20.82C14.3312 20.8242 13.6565 20.6202 13.0872 20.2354C12.5179 19.8507 12.0811 19.3035 11.8352 18.667C11.5894 18.0305 11.5461 17.335 11.7113 16.6736C11.8765 16.0122 12.2422 15.4163 12.7596 14.9657C12.8559 14.8819 12.9144 14.7637 12.9224 14.6372C12.9305 14.5107 12.8872 14.3862 12.8023 14.2912C12.7174 14.1961 12.5977 14.1383 12.4696 14.1304C12.3415 14.1225 12.2155 14.1651 12.1192 14.249C11.4416 14.8393 10.9667 15.6231 10.7603 16.4918C10.554 17.3605 10.6264 18.271 10.9675 19.0973C11.3086 19.9235 11.9016 20.6245 12.6642 21.1032C13.4268 21.5818 14.3213 21.8143 15.2237 21.7685C16.1261 21.7226 16.9917 21.4008 17.7006 20.8475C18.4095 20.2941 18.9265 19.5368 19.18 18.6804C19.4335 17.8239 19.411 16.9108 19.1155 16.0676C18.82 15.2244 18.2662 14.4928 17.5309 13.9743V13.975Z" fill="#004FAC"/>
<path d="M29.5161 29.0323H25.6452V15.4839H29.5161C29.7118 15.4836 29.8882 15.3657 29.9631 15.185C30.038 15.0043 29.9965 14.7961 29.8582 14.6579L15.3421 0.141759C15.1531 -0.047253 14.8469 -0.047253 14.6579 0.141759L0.141759 14.6579C0.00354398 14.7961 -0.0380387 15.0043 0.0368574 15.185C0.111753 15.3657 0.288243 15.4836 0.483871 15.4839H4.35484V29.0323H0.483871C0.216655 29.0323 0 29.2487 0 29.5161C0 29.7833 0.216655 30 0.483871 30H29.5161C29.7833 30 30 29.7833 30 29.5161C30 29.2487 29.7833 29.0323 29.5161 29.0323ZM4.83871 14.5161H1.65197L15 1.16786L28.348 14.5161H25.1613C24.8941 14.5161 24.6774 14.7325 24.6774 15V29.0323H5.32258V15C5.32258 14.7325 5.10593 14.5161 4.83871 14.5161Z" fill="#004FAC"/>
</svg>
