<svg width="375" height="158" viewBox="0 0 375 158" fill="none" xmlns="http://www.w3.org/2000/svg">
<mask id="mask0" mask-type="alpha" maskUnits="userSpaceOnUse" x="0" y="0" width="375" height="158">
<path d="M0 0H375V142C375 150.837 367.837 158 359 158H16C7.16345 158 0 150.837 0 142V0Z" fill="#3784FF"/>
</mask>
<g mask="url(#mask0)">
<path d="M0 0H375V142C375 150.837 367.837 158 359 158H16C7.16345 158 0 150.837 0 142V0Z" fill="#3784FF"/>
<mask id="mask1" mask-type="alpha" maskUnits="userSpaceOnUse" x="0" y="0" width="375" height="204">
<rect x="375" y="204" width="375" height="204" transform="rotate(180 375 204)" fill="#C4C4C4"/>
</mask>
<g mask="url(#mask1)">
<g opacity="0.25">
<g opacity="0.3">
<path d="M-79.4177 53.4311C-79.4177 55.1913 -77.9764 56.6314 -76.2147 56.6314C-75.841 56.6314 -75.5206 56.5781 -75.2003 56.4714L-57.6368 95.4082C-58.5444 95.9949 -59.1317 96.955 -59.1317 98.1285C-59.1317 99.8886 -57.6903 101.329 -55.9285 101.329C-54.5939 101.329 -53.4728 100.529 -52.939 99.3552L19.2368 118.024C19.2368 118.13 19.2368 118.237 19.2368 118.344C19.2368 120.104 20.6782 121.544 22.4399 121.544C24.2016 121.544 25.643 120.104 25.643 118.344C25.643 118.13 25.643 117.917 25.5896 117.704L64.5069 103.462C65.0407 104.476 66.1084 105.116 67.3363 105.116C69.098 105.116 70.5393 103.676 70.5393 101.915C70.5393 101.169 70.2724 100.529 69.8987 99.9953L101.983 67.7257C102.517 68.0991 103.157 68.3658 103.905 68.3658C104.705 68.3658 105.399 68.0991 105.933 67.619L185.85 139.465C185.53 139.999 185.316 140.586 185.316 141.226C185.316 142.986 186.757 144.426 188.519 144.426C190.281 144.426 191.722 142.986 191.722 141.226C191.722 140.746 191.615 140.319 191.455 139.945L301.748 71.4593C302.015 73.0061 303.349 74.1262 304.897 74.1262C306.659 74.1262 308.1 72.6861 308.1 70.9259C308.1 70.8193 308.1 70.7126 308.1 70.6059L354.545 59.1915C355.025 60.365 356.2 61.1651 357.534 61.1651C359.136 61.1651 360.471 59.9916 360.737 58.4448L421.222 58.4448C421.436 59.9916 422.77 61.165 424.425 61.165C425.386 61.165 426.24 60.7383 426.828 60.0983L466.919 86.2339C466.759 86.6073 466.652 87.0873 466.652 87.5674C466.652 89.3275 468.094 90.7677 469.855 90.7677C471.617 90.7677 473.058 89.3275 473.058 87.5674C473.058 85.9672 471.831 84.5804 470.283 84.3671L471.457 -16.922C473.005 -17.1353 474.233 -18.4688 474.233 -20.1223C474.233 -21.8824 472.792 -23.3225 471.03 -23.3225C470.389 -23.3225 469.802 -23.1092 469.322 -22.7892L437.344 -59.5391C437.825 -60.1258 438.145 -60.8192 438.145 -61.6193C438.145 -63.3794 436.704 -64.8196 434.942 -64.8196C433.18 -64.8196 431.739 -63.3794 431.739 -61.6193C431.739 -61.0859 431.846 -60.6058 432.059 -60.1791L399.068 -37.0304C398.48 -37.6705 397.68 -38.0438 396.719 -38.0438C395.758 -38.0438 394.904 -37.6171 394.316 -36.9237L364.901 -54.632C365.008 -54.952 365.115 -55.3254 365.115 -55.7521C365.115 -57.5122 363.674 -58.9523 361.912 -58.9523C360.15 -58.9523 358.709 -57.5122 358.709 -55.7521L358.655 -56.2321L253.541 -48.6048C253.221 -50.0449 251.94 -51.1116 250.392 -51.1116C249.644 -51.1116 248.95 -50.8449 248.363 -50.4182L216.119 -80.4476C216.493 -80.9809 216.706 -81.5677 216.706 -82.2611C216.706 -84.0212 215.265 -85.4614 213.503 -85.4614C211.741 -85.4614 210.3 -84.0212 210.3 -82.2611C210.3 -81.621 210.46 -81.0343 210.78 -80.5542L160.225 -37.2437C159.638 -37.7237 158.944 -38.0438 158.143 -38.0438C156.382 -38.0438 154.94 -36.6036 154.94 -34.8435C154.94 -34.1501 155.154 -33.5634 155.527 -33.03L125.686 -5.29418C125.152 -5.72089 124.458 -5.98757 123.657 -5.98757C121.895 -5.98757 120.454 -4.54744 120.454 -2.78728C120.454 -2.68061 120.454 -2.52059 120.454 -2.41391L48.7051 18.4413C48.1712 17.3745 47.1035 16.6278 45.8223 16.6278C44.8613 16.6278 44.0072 17.0545 43.42 17.6946L0.28532 -10.0946C0.498882 -10.5213 0.605632 -11.0013 0.605632 -11.4814C0.605632 -13.2415 -0.835744 -14.6816 -2.59743 -14.6816C-4.30575 -14.6816 -5.74712 -13.2949 -5.80053 -11.588L-64.9505 0.413053C-65.4844 -0.653704 -66.5521 -1.45378 -67.8867 -1.45378C-69.6484 -1.45378 -71.0897 -0.0136571 -71.0897 1.74651C-71.0897 3.07996 -70.289 4.20006 -69.1679 4.6801L-76.1613 50.0708C-78.0297 50.2308 -79.4177 51.671 -79.4177 53.4311ZM250.392 -44.6044C250.819 -44.6044 251.246 -44.711 251.566 -44.8177L274.842 -5.08085L248.256 -38.8439L249.965 -44.6577C250.071 -44.6044 250.232 -44.6044 250.392 -44.6044ZM363.567 -52.9252L381.557 -28.4963L360.257 -18.5221C359.83 -19.1621 359.189 -19.6422 358.389 -19.8555L362.179 -52.4451C362.713 -52.5518 363.14 -52.7118 363.567 -52.9252ZM434.942 -58.3123C435.583 -58.3123 436.17 -58.5257 436.65 -58.8457L468.628 -22.0958C468.361 -21.7757 468.2 -21.4557 468.04 -21.0823L423.945 -29.8298L434.301 -58.3657C434.515 -58.3123 434.728 -58.3123 434.942 -58.3123ZM24.682 116.05C24.0948 115.517 23.3474 115.197 22.4933 115.197C21.7459 115.197 21.1053 115.463 20.5181 115.837L-23.8979 72.8995C-23.7911 72.7395 -23.7377 72.6328 -23.6309 72.4728L49.0788 96.4216L24.682 116.05ZM-4.4659 -8.65444L-26.14 67.8324C-26.3002 67.8324 -26.4069 67.7791 -26.5671 67.7791C-26.9942 67.7791 -27.4212 67.8857 -27.7949 68.0457L-50.2698 30.7091L-5.1065 -9.18782C-4.89296 -9.0278 -4.67943 -8.81446 -4.4659 -8.65444ZM-29.1829 72.8462L-35.9627 79.1401L-72.6379 54.8712L-29.6633 70.446C-29.7167 70.6593 -29.7168 70.8727 -29.7168 71.086C-29.7168 71.7261 -29.5566 72.3128 -29.1829 72.8462ZM-28.5423 73.5396C-28.0084 73.9663 -27.3145 74.233 -26.5137 74.233C-25.7663 74.233 -25.1257 73.9663 -24.5385 73.5929L18.4894 115.197L-35.1086 79.6734L-28.5423 73.5396ZM-19.4669 72.8462L57.5135 87.5141C57.5135 87.5675 57.5135 87.6208 57.5135 87.6208C57.5135 88.2075 57.6737 88.7409 57.9406 89.221L49.9329 95.6749L-19.4669 72.8462ZM58.5812 90.021C59.1684 90.5544 59.9158 90.8744 60.77 90.8744C61.0903 90.8744 61.4106 90.8211 61.6775 90.7678L65.628 99.3018C65.1475 99.6219 64.7738 100.049 64.5069 100.529L51.0006 96.1016L58.5812 90.021ZM67.3896 98.7685C67.0693 98.7685 66.749 98.8218 66.4821 98.8752L62.5317 90.3411C63.3858 89.7543 63.973 88.7943 63.973 87.6742C63.973 87.3008 63.9197 86.9274 63.8129 86.6074L101.342 67.0323C101.342 67.0323 101.342 67.0323 101.342 67.0856L69.2581 99.3552C68.7242 98.9818 68.0836 98.7685 67.3896 98.7685ZM160.759 -32.9766L188.145 -20.1222L172.29 19.6147C172.077 19.5614 171.81 19.508 171.543 19.508C171.436 19.508 171.383 19.508 171.276 19.508L159.264 -31.8032C159.905 -32.0166 160.385 -32.4433 160.759 -32.9766ZM469.055 -17.5087L434.461 40.4698L411.826 10.8139C412.414 10.2271 412.734 9.42706 412.734 8.57365C412.734 8.25363 412.681 7.93359 412.627 7.6669L468.414 -18.2021C468.574 -17.9354 468.788 -17.722 469.055 -17.5087ZM467.453 85.5939L427.361 59.4582C427.575 59.0315 427.682 58.6048 427.682 58.1248C427.682 57.1113 427.201 56.2046 426.507 55.6179L434.568 42.1767L467.56 85.4872C467.506 85.4872 467.506 85.5405 467.453 85.5939ZM394.263 23.5617L407.396 10.9739C407.983 11.4539 408.677 11.7739 409.531 11.7739C409.691 11.7739 409.851 11.774 410.011 11.7206L423.091 55.1912C422.93 55.2445 422.824 55.3512 422.717 55.4045L394.263 23.5617ZM359.563 55.5646C359.136 55.2445 358.602 55.0312 358.068 54.9245L358.068 -13.615C358.549 -13.6683 358.976 -13.8283 359.349 -14.095L392.928 23.5083L359.563 55.5646ZM106.894 63.8853L151.203 36.0962L183.074 79.5667C182.754 79.8868 182.487 80.3135 182.326 80.7402L107.161 65.3255C107.161 65.2721 107.161 65.2188 107.161 65.1655C107.161 64.7388 107.054 64.3121 106.894 63.8853ZM275.589 1.37305C275.696 1.90642 275.963 2.33315 276.337 2.75986L257.385 23.5084L237.793 4.25332C238.487 3.71994 238.967 2.91986 239.074 2.01312L275.589 1.37305ZM185.316 78.66C185.209 78.66 185.156 78.66 185.049 78.66L172.931 26.7087L172.717 25.7486C173.465 25.4819 174.052 24.8952 174.426 24.2018L212.435 36.6829L186.597 78.9267C186.224 78.7667 185.796 78.66 185.316 78.66ZM174.746 23.2951C174.799 23.135 174.799 22.9217 174.799 22.7617C174.799 22.5483 174.799 22.3883 174.746 22.1749L232.775 2.70651C232.828 2.86652 232.882 3.02653 232.988 3.13321L212.969 35.8295L174.746 23.2951ZM233.576 3.98663C233.789 4.19998 234.003 4.36 234.27 4.52002L236.458 27.0287L237.9 41.6967C236.992 41.91 236.245 42.4967 235.818 43.2968L213.93 36.0962L233.576 3.98663ZM240.355 42.1234C239.875 41.8033 239.341 41.6433 238.754 41.59L237.313 26.7086L235.177 4.84003C235.391 4.89337 235.551 4.89339 235.764 4.89339C236.138 4.89339 236.512 4.84004 236.832 4.68002L256.638 24.1484L240.355 42.1234ZM171.543 25.962C171.65 25.962 171.703 25.962 171.81 25.962L184.142 78.8733C184.035 78.9267 183.928 78.98 183.821 79.0334L151.951 35.6161L169.087 24.8952C169.728 25.5352 170.582 25.962 171.543 25.962ZM187.398 79.4067L213.343 36.9496L235.444 44.2035C235.391 44.4169 235.391 44.5769 235.391 44.7903C235.391 45.2703 235.497 45.7503 235.711 46.1771L187.665 79.6734C187.612 79.5667 187.505 79.5134 187.398 79.4067ZM241.049 42.7634L257.385 24.8952L302.388 69.1658C302.335 69.2725 302.281 69.3258 302.228 69.4325L241.797 45.4837C241.85 45.2703 241.85 45.057 241.85 44.7903C241.85 44.0435 241.53 43.2968 241.049 42.7634ZM258.026 24.2017L277.031 3.34656C277.511 3.61325 278.045 3.77326 278.685 3.77326C278.899 3.77326 279.059 3.77327 279.273 3.71993L303.456 68.2057C303.349 68.259 303.189 68.3657 303.082 68.4724L258.026 24.2017ZM424.479 54.8711C424.318 54.8711 424.158 54.8711 423.998 54.9245L414.069 22.0149L410.919 11.4539C410.972 11.4539 411.026 11.4006 411.079 11.3472L433.928 41.3233L425.706 55.1378C425.279 54.9778 424.906 54.8711 424.479 54.8711ZM360.097 -14.7351C360.15 -14.7884 360.204 -14.8951 360.257 -14.9484L406.435 7.56024C406.328 7.88028 406.274 8.2003 406.274 8.52033C406.274 9.16039 406.435 9.74712 406.755 10.2272L393.622 22.8683L360.097 -14.7351ZM275.482 0.412968L238.967 1.05304C238.754 0.0396099 238.06 -0.813784 237.152 -1.2405L247.883 -37.7238L276.337 -1.61387C275.856 -1.0805 275.536 -0.333767 275.482 0.412968ZM236.245 -1.50719C236.085 -1.50719 235.978 -1.56055 235.818 -1.56055C235.711 -1.56055 235.551 -1.56055 235.444 -1.56055L214.731 -79.2742C214.838 -79.3275 214.944 -79.3808 215.051 -79.4342L247.189 -38.6838L236.245 -1.50719ZM232.615 1.74643L174.426 21.2682C174.159 20.7348 173.732 20.2548 173.198 19.9347L189.053 -19.7488L232.775 0.732986C232.668 0.999679 232.615 1.31972 232.615 1.63974C232.615 1.69308 232.615 1.74643 232.615 1.74643ZM168.607 24.0418L151.417 34.8161L125.686 -0.280384C125.846 -0.387059 125.952 -0.547078 126.059 -0.707081L168.5 21.6949C168.393 22.0149 168.34 22.3883 168.34 22.7617C168.34 23.2417 168.446 23.6684 168.607 24.0418ZM123.55 0.51968C124.031 0.51968 124.458 0.413006 124.885 0.253002L150.616 35.3495L106.36 63.0853C106.04 62.7119 105.666 62.4452 105.239 62.2319L122.909 0.466336C123.123 0.519665 123.337 0.51968 123.55 0.51968ZM106.948 66.2856L182.113 81.7003C182.113 81.7536 182.113 81.8069 182.113 81.8603C182.113 83.5138 183.394 84.9005 185.049 85.0606L187.932 138.132C187.398 138.239 186.918 138.452 186.544 138.825L106.627 66.979C106.734 66.7656 106.841 66.5522 106.948 66.2856ZM188.839 138.132L185.957 85.0606C187.345 84.7939 188.466 83.5671 188.519 82.0736L220.283 79.14L189.587 138.292C189.373 138.185 189.106 138.132 188.839 138.132ZM188.466 81.1135C188.412 80.9002 188.306 80.6335 188.199 80.4735L236.191 46.9771C236.352 47.1371 236.512 47.2971 236.672 47.4038L220.763 78.0732L188.466 81.1135ZM237.579 47.8306C237.9 47.9372 238.273 47.9906 238.647 47.9906C239.875 47.9906 240.889 47.2971 241.476 46.3371L301.908 70.2859C301.908 70.3925 301.854 70.4459 301.854 70.5526L221.991 78.0199L237.579 47.8306ZM305.004 67.8323C304.791 67.8323 304.524 67.8323 304.31 67.8857L280.18 3.45323C280.394 3.34656 280.661 3.18654 280.821 2.97319L325.717 35.5094L306.232 68.0457C305.858 67.8856 305.431 67.8323 305.004 67.8323ZM281.408 2.2798C281.728 1.79976 281.889 1.26639 281.889 0.62633L352.943 -15.2685L354.598 -15.6418C354.812 -15.1084 355.132 -14.6817 355.559 -14.3084L326.198 34.7093L281.408 2.2798ZM356.36 -13.8283C356.573 -13.7217 356.84 -13.6683 357.107 -13.615L357.107 54.9245C356.413 55.0312 355.773 55.3512 355.292 55.8312L326.945 35.2961L356.36 -13.8283ZM360.204 56.2579L393.569 24.2551L421.97 56.0446C421.596 56.4713 421.329 57.058 421.276 57.6447L360.791 57.6447C360.684 57.1113 360.524 56.6313 360.204 56.2579ZM468.307 84.9005L435.049 41.2699L469.855 -17.0287C470.069 -16.922 470.336 -16.8686 470.549 -16.8153L469.375 84.5271C469.001 84.5804 468.628 84.6871 468.307 84.9005ZM467.88 -20.1756C467.88 -20.1222 467.88 -20.0689 467.88 -20.0156C467.88 -19.6955 467.934 -19.3755 467.987 -19.1088L412.2 6.76018C411.933 6.33347 411.506 5.9601 411.026 5.69342L423.624 -28.923L467.88 -20.1756ZM410.171 5.37337C409.958 5.32002 409.744 5.32004 409.531 5.32004L409.478 5.32004L398 -31.7499C398.854 -32.07 399.495 -32.7634 399.815 -33.6168L422.717 -29.083L410.171 5.37337ZM396.719 -31.5366C396.825 -31.5366 396.932 -31.5366 397.039 -31.5366L408.517 5.48006C408.356 5.53339 408.196 5.58675 408.036 5.69342L383.052 -28.1763L393.943 -33.2967C394.423 -32.23 395.491 -31.5366 396.719 -31.5366ZM407.235 6.28012C407.129 6.3868 407.022 6.49346 406.968 6.60015L360.684 -15.8019C360.791 -16.1219 360.844 -16.4419 360.844 -16.7619C360.844 -17.082 360.791 -17.402 360.684 -17.6687L382.145 -27.7496L407.235 6.28012ZM359.616 -53.4052C360.043 -52.9785 360.631 -52.6585 361.325 -52.5518L357.534 -20.0155C355.826 -19.9622 354.438 -18.5221 354.438 -16.8152C354.438 -16.7619 354.438 -16.6553 354.438 -16.6019L336.714 -12.6549L281.835 -0.387113C281.782 -0.493787 281.782 -0.600461 281.728 -0.653791L359.616 -53.4052ZM249.004 -44.8711L247.509 -39.6973L217.614 -77.6206L247.722 -49.6182C247.349 -49.0848 247.135 -48.4981 247.135 -47.8047C247.135 -46.5246 247.936 -45.4045 249.004 -44.8711ZM213.45 -78.9541C213.556 -78.9541 213.717 -78.9541 213.823 -78.9541L234.536 -1.24049C233.949 -0.973801 233.469 -0.600464 233.148 -0.0670782L189.373 -20.6022L212.702 -79.0608C212.969 -79.0074 213.183 -78.9541 213.45 -78.9541ZM211.848 -79.3808L188.519 -20.9756L161.186 -33.7767C161.293 -34.0434 161.346 -34.3634 161.346 -34.6835C161.346 -35.3235 161.186 -35.9102 160.866 -36.3903L211.421 -79.7008C211.474 -79.5942 211.688 -79.4875 211.848 -79.3808ZM158.09 -31.5365C158.197 -31.5365 158.25 -31.5365 158.357 -31.5365L170.368 19.7747C169.781 19.9881 169.301 20.3614 168.98 20.8415L126.593 -1.50716C126.753 -1.88053 126.807 -2.2539 126.807 -2.68061C126.807 -3.374 126.593 -3.96073 126.219 -4.49411L156.061 -32.2299C156.649 -31.8032 157.343 -31.5365 158.09 -31.5365ZM121.949 0.146313C121.949 0.146313 122.002 0.146298 122.002 0.199643L104.332 62.0185C104.172 62.0185 104.065 61.9652 103.905 61.9652C103.05 61.9652 102.25 62.2852 101.663 62.8719L86.6081 51.1375L121.949 0.146313ZM101.129 63.6187C100.862 64.0987 100.702 64.6321 100.702 65.2188C100.702 65.5922 100.755 65.9655 100.862 66.2856L63.3324 85.8607C63.2257 85.7006 63.0655 85.5406 62.9053 85.3806L86.0742 51.991L101.129 63.6187ZM62.158 84.7939C61.7309 84.5805 61.2504 84.4739 60.7166 84.4739C60.6632 84.4739 60.5564 84.4739 60.503 84.4739L47.6374 26.442L46.89 22.975C47.317 22.815 47.6908 22.5483 48.0111 22.2816L85.3802 51.3509L62.158 84.7939ZM45.7155 23.1884C45.8223 23.1884 45.8757 23.1884 45.9825 23.1884L46.7298 26.442L59.5955 84.6872C59.5421 84.6872 59.4887 84.7405 59.4353 84.7405L26.7107 33.9093L43.3666 22.1216C43.9538 22.815 44.7546 23.1884 45.7155 23.1884ZM58.6346 85.2739C58.2075 85.6473 57.8872 86.1273 57.727 86.6074L-23.3106 71.1393C-23.3106 71.086 -23.3106 71.0327 -23.3106 71.0327C-23.3106 70.4993 -23.4174 70.0193 -23.6843 69.5926L25.9099 34.4961L58.6346 85.2739ZM-24.2181 68.7925C-24.4851 68.4725 -24.8588 68.2591 -25.2325 68.0991L-3.61177 -8.28107C-3.34484 -8.17439 -3.02449 -8.17438 -2.70418 -8.17438C-2.33049 -8.17438 -1.95681 -8.22774 -1.63649 -8.38776L25.3761 33.6427L-24.2181 68.7925ZM-64.737 1.85319C-64.737 1.69317 -64.737 1.53314 -64.7904 1.37314L-5.80053 -10.5746C-5.74712 -10.4146 -5.69375 -10.2012 -5.58696 -10.0412L-50.6969 29.8557L-66.0182 4.4134C-65.2174 3.88003 -64.737 2.91995 -64.737 1.85319ZM-28.5423 68.5258C-28.8626 68.7925 -29.1295 69.1125 -29.3431 69.4859L-73.0116 53.6978C-73.0116 53.5911 -73.0116 53.5378 -73.0116 53.4311C-73.0116 52.6844 -73.2785 51.991 -73.7056 51.4576L-50.9638 31.3491L-28.5423 68.5258ZM-74.3462 56.0447C-74.0793 55.8313 -73.8124 55.618 -73.5988 55.3513L-36.6568 79.8335L-53.7932 95.6749C-54.327 95.2482 -55.021 94.9815 -55.8218 94.9815C-56.1421 94.9815 -56.409 95.0348 -56.6759 95.0882L-74.3462 56.0447ZM-52.6721 98.4485C-52.6721 98.3418 -52.6721 98.2351 -52.6721 98.1285C-52.6721 97.4351 -52.8856 96.8483 -53.2059 96.3149L-35.856 80.3135L19.6105 117.063C19.6105 117.117 19.5571 117.117 19.5571 117.17L-52.6721 98.4485ZM25.3227 116.85C25.3227 116.797 25.2693 116.797 25.2693 116.743L50.1465 96.7416L64.2399 101.382C64.1865 101.542 64.1866 101.755 64.1866 101.915C64.1866 102.129 64.1865 102.342 64.2399 102.555L25.3227 116.85ZM191.028 139.252C190.868 139.039 190.654 138.879 190.441 138.719L221.404 78.98L299.826 71.6726L191.028 139.252ZM307.994 69.8058C307.78 69.3258 307.46 68.8991 307.033 68.5257L326.465 36.0962L354.758 56.6313C354.545 57.058 354.385 57.5914 354.385 58.1248C354.385 58.2315 354.385 58.3381 354.385 58.4448L307.994 69.8058ZM432.646 -59.3257C432.86 -59.0591 433.127 -58.8457 433.447 -58.6857L423.037 -29.9898L399.975 -34.5768C399.975 -34.6302 399.975 -34.6835 399.975 -34.7369C399.975 -35.2703 399.868 -35.7503 399.655 -36.177L432.646 -59.3257ZM393.782 -36.0703C393.622 -35.6436 393.516 -35.2169 393.516 -34.7369C393.516 -34.5235 393.516 -34.3635 393.569 -34.1501L382.412 -28.923L364.261 -53.5119C364.314 -53.5652 364.368 -53.6186 364.421 -53.6719L393.782 -36.0703ZM358.655 -55.2187C358.709 -54.8987 358.816 -54.472 359.029 -54.1519L281.195 -1.45387C280.607 -2.2006 279.7 -2.68065 278.685 -2.68065C278.258 -2.68065 277.831 -2.57399 277.511 -2.46731L252.42 -45.3511C253.114 -45.8845 253.541 -46.6846 253.595 -47.5913L358.655 -55.2187ZM120.614 -1.4005C120.774 -1.08048 120.988 -0.76044 121.255 -0.493747L85.9141 50.4975L48.5983 21.4816C48.8652 21.0015 48.972 20.5215 48.972 19.9348C48.972 19.7747 48.972 19.6147 48.9186 19.4547L120.614 -1.4005ZM42.7794 18.6013C42.5658 19.028 42.4591 19.5081 42.4591 19.9881C42.4591 20.4682 42.5658 20.9482 42.7794 21.3749L26.1768 33.1093L-0.782368 -8.81446C-0.622212 -8.92113 -0.462025 -9.08113 -0.3019 -9.24115L42.7794 18.6013ZM-67.9401 5.10679C-67.5664 5.10679 -67.1927 5.05348 -66.8724 4.89346L-51.4442 30.4957L-74.3462 50.7642C-74.6132 50.5509 -74.9334 50.3908 -75.3071 50.3375L-68.3137 5.05347C-68.207 5.05347 -68.1002 5.1068 -67.9401 5.10679Z" fill="white"/>
</g>
<path d="M122.215 103.353C120.56 106.394 116.716 107.567 113.673 105.914C110.63 104.26 109.456 100.42 111.111 97.3796C112.766 94.3393 116.609 93.1659 119.652 94.8194C122.749 96.4195 123.87 100.26 122.215 103.353Z" fill="url(#paint0_radial)"/>
<path d="M369.814 97.3823C368.159 100.423 364.315 101.596 361.272 99.9425C358.229 98.289 357.055 94.4487 358.71 91.4084C360.364 88.3681 364.208 87.1947 367.251 88.8482C370.347 90.4483 371.468 94.2886 369.814 97.3823Z" fill="url(#paint1_radial)"/>
</g>
</g>
</g>
<defs>
<radialGradient id="paint0_radial" cx="0" cy="0" r="1" gradientUnits="userSpaceOnUse" gradientTransform="translate(116.665 100.325) rotate(28.4417) scale(6.31257 6.30957)">
<stop stop-color="white"/>
<stop offset="1" stop-color="white" stop-opacity="0"/>
</radialGradient>
<radialGradient id="paint1_radial" cx="0" cy="0" r="1" gradientUnits="userSpaceOnUse" gradientTransform="translate(364.264 94.3542) rotate(28.4417) scale(6.31256 6.30957)">
<stop stop-color="white"/>
<stop offset="1" stop-color="white" stop-opacity="0"/>
</radialGradient>
</defs>
</svg>
