<svg width="30" height="30" viewBox="0 0 30 30" fill="none" xmlns="http://www.w3.org/2000/svg">
<path d="M29.0625 9.375V21.5625C29.0625 22.1841 28.8156 22.7802 28.376 23.2198C27.9365 23.6593 27.3404 23.9062 26.7188 23.9062H26.25V27.6562L22.5 23.9062H9.84375C9.22215 23.9062 8.62601 23.6593 8.18647 23.2198C7.74693 22.7802 7.5 22.1841 7.5 21.5625V19.2188H20.1562C20.464 19.2188 20.7688 19.1581 21.0532 19.0403C21.3375 18.9226 21.5959 18.7499 21.8135 18.5323C22.0312 18.3146 22.2038 18.0563 22.3216 17.7719C22.4394 17.4876 22.5 17.1828 22.5 16.875V7.03125H26.7188C27.3404 7.03125 27.9365 7.27818 28.376 7.71772C28.8156 8.15726 29.0625 8.7534 29.0625 9.375Z" fill="#57A4FF"/>
<path d="M7.03125 11.25C7.54902 11.25 7.96875 10.8303 7.96875 10.3125C7.96875 9.79473 7.54902 9.375 7.03125 9.375C6.51348 9.375 6.09375 9.79473 6.09375 10.3125C6.09375 10.8303 6.51348 11.25 7.03125 11.25Z" fill="#57A4FF"/>
<path d="M11.7188 11.25C12.2365 11.25 12.6562 10.8303 12.6562 10.3125C12.6562 9.79473 12.2365 9.375 11.7188 9.375C11.201 9.375 10.7812 9.79473 10.7812 10.3125C10.7812 10.8303 11.201 11.25 11.7188 11.25Z" fill="#57A4FF"/>
<path d="M16.4062 11.25C16.924 11.25 17.3438 10.8303 17.3438 10.3125C17.3438 9.79473 16.924 9.375 16.4062 9.375C15.8885 9.375 15.4688 9.79473 15.4688 10.3125C15.4688 10.8303 15.8885 11.25 16.4062 11.25Z" fill="#57A4FF"/>
<path d="M11.7188 11.25C12.2365 11.25 12.6562 10.8303 12.6562 10.3125C12.6562 9.79473 12.2365 9.375 11.7188 9.375C11.201 9.375 10.7812 9.79473 10.7812 10.3125C10.7812 10.8303 11.201 11.25 11.7188 11.25Z" fill="#57A4FF"/>
<path d="M7.03125 11.25C7.54902 11.25 7.96875 10.8303 7.96875 10.3125C7.96875 9.79473 7.54902 9.375 7.03125 9.375C6.51348 9.375 6.09375 9.79473 6.09375 10.3125C6.09375 10.8303 6.51348 11.25 7.03125 11.25Z" fill="#57A4FF"/>
<path d="M16.4062 11.25C16.924 11.25 17.3438 10.8303 17.3438 10.3125C17.3438 9.79473 16.924 9.375 16.4062 9.375C15.8885 9.375 15.4688 9.79473 15.4688 10.3125C15.4688 10.8303 15.8885 11.25 16.4062 11.25Z" fill="#57A4FF"/>
<path d="M26.7188 6.5625H22.9688V4.6875C22.968 3.94182 22.6714 3.22691 22.1441 2.69964C21.6168 2.17236 20.9019 1.87579 20.1562 1.875H3.28125C2.53557 1.87579 1.82066 2.17236 1.29339 2.69964C0.766111 3.22691 0.469541 3.94182 0.46875 4.6875V16.875C0.469541 17.6207 0.766111 18.3356 1.29339 18.8629C1.82066 19.3901 2.53557 19.6867 3.28125 19.6875V22.9688C3.28118 23.0615 3.30863 23.1522 3.36013 23.2294C3.41163 23.3065 3.48487 23.3667 3.57057 23.4022C3.65627 23.4377 3.75057 23.447 3.84155 23.4288C3.93253 23.4107 4.01608 23.366 4.08164 23.3004L7.03125 20.3502V21.5625C7.03204 22.3082 7.32861 23.0231 7.85589 23.5504C8.38316 24.0776 9.09807 24.3742 9.84375 24.375H22.3061L25.9184 27.9879C25.9839 28.0535 26.0675 28.0982 26.1585 28.1163C26.2494 28.1345 26.3437 28.1252 26.4294 28.0897C26.5151 28.0542 26.5884 27.994 26.6399 27.9169C26.6914 27.8397 26.7188 27.749 26.7188 27.6562V24.375C27.4644 24.3742 28.1793 24.0776 28.7066 23.5504C29.2339 23.0231 29.5305 22.3082 29.5312 21.5625V9.375C29.5305 8.62932 29.2339 7.91441 28.7066 7.38714C28.1793 6.85986 27.4644 6.56329 26.7188 6.5625ZM7.5 18.75C7.37565 18.75 7.25637 18.7993 7.16836 18.8871L4.21875 21.8373V19.2188C4.21875 19.0944 4.16936 18.9752 4.08146 18.8873C3.99355 18.7994 3.87432 18.75 3.75 18.75H3.28125C2.78414 18.7494 2.30755 18.5517 1.95604 18.2002C1.60453 17.8487 1.40681 17.3721 1.40625 16.875V4.6875C1.40681 4.19039 1.60453 3.7138 1.95604 3.36229C2.30755 3.01078 2.78414 2.81306 3.28125 2.8125H20.1562C20.6534 2.81306 21.1299 3.01078 21.4815 3.36229C21.833 3.7138 22.0307 4.19039 22.0312 4.6875V16.875C22.0307 17.3721 21.833 17.8487 21.4815 18.2002C21.1299 18.5517 20.6534 18.7494 20.1562 18.75H7.5ZM28.5938 21.5625C28.5932 22.0596 28.3955 22.5362 28.044 22.8877C27.6924 23.2392 27.2159 23.4369 26.7188 23.4375H26.25C26.1257 23.4375 26.0065 23.4869 25.9185 23.5748C25.8306 23.6627 25.7812 23.7819 25.7812 23.9062V26.5248L22.8316 23.5746C22.7436 23.4868 22.6243 23.4375 22.5 23.4375H9.84375C9.34664 23.4369 8.87005 23.2392 8.51854 22.8877C8.16703 22.5362 7.96931 22.0596 7.96875 21.5625V19.6875H20.1562C20.9019 19.6867 21.6168 19.3901 22.1441 18.8629C22.6714 18.3356 22.968 17.6207 22.9688 16.875V7.5H26.7188C27.2159 7.50056 27.6924 7.69828 28.044 8.04979C28.3955 8.4013 28.5932 8.87789 28.5938 9.375V21.5625Z" fill="#004FAC"/>
<path d="M11.7187 11.7188C11.9969 11.7188 12.2688 11.6363 12.5 11.4818C12.7313 11.3272 12.9115 11.1076 13.018 10.8506C13.1244 10.5937 13.1522 10.3109 13.098 10.0382C13.0437 9.76537 12.9098 9.5148 12.7131 9.31813C12.5164 9.12146 12.2659 8.98753 11.9931 8.93327C11.7203 8.87901 11.4376 8.90686 11.1806 9.0133C10.9236 9.11973 10.704 9.29997 10.5495 9.53123C10.395 9.76249 10.3125 10.0344 10.3125 10.3125C10.3129 10.6853 10.4612 11.0428 10.7248 11.3064C10.9885 11.57 11.3459 11.7183 11.7187 11.7188ZM11.7187 9.84375C11.8115 9.84375 11.9021 9.87124 11.9792 9.92275C12.0563 9.97426 12.1163 10.0475 12.1518 10.1331C12.1873 10.2188 12.1966 10.313 12.1785 10.4039C12.1604 10.4949 12.1158 10.5784 12.0502 10.644C11.9846 10.7095 11.9011 10.7542 11.8102 10.7722C11.7193 10.7903 11.625 10.781 11.5394 10.7456C11.4537 10.7101 11.3805 10.65 11.329 10.5729C11.2775 10.4958 11.25 10.4052 11.25 10.3125C11.2501 10.1882 11.2996 10.0691 11.3874 9.9812C11.4753 9.89332 11.5945 9.84389 11.7187 9.84375Z" fill="#004FAC"/>
<path d="M7.03125 11.7188C7.30938 11.7188 7.58126 11.6363 7.81252 11.4818C8.04377 11.3272 8.22402 11.1076 8.33045 10.8506C8.43689 10.5937 8.46474 10.3109 8.41048 10.0382C8.35622 9.76537 8.22228 9.5148 8.02562 9.31813C7.82895 9.12146 7.57838 8.98753 7.30559 8.93327C7.03281 8.87901 6.75006 8.90686 6.4931 9.0133C6.23614 9.11973 6.01652 9.29997 5.862 9.53123C5.70748 9.76249 5.625 10.0344 5.625 10.3125C5.62542 10.6853 5.77371 11.0428 6.03734 11.3064C6.30098 11.57 6.65842 11.7183 7.03125 11.7188ZM7.03125 9.84375C7.12396 9.84375 7.21459 9.87124 7.29167 9.92275C7.36876 9.97426 7.42884 10.0475 7.46432 10.1331C7.49979 10.2188 7.50908 10.313 7.49099 10.4039C7.4729 10.4949 7.42826 10.5784 7.3627 10.644C7.29715 10.7095 7.21363 10.7542 7.1227 10.7722C7.03177 10.7903 6.93752 10.781 6.85187 10.7456C6.76621 10.7101 6.693 10.65 6.6415 10.5729C6.58999 10.4958 6.5625 10.4052 6.5625 10.3125C6.56264 10.1882 6.61207 10.0691 6.69995 9.9812C6.78782 9.89332 6.90697 9.84389 7.03125 9.84375Z" fill="#004FAC"/>
<path d="M16.4063 11.7188C16.6844 11.7188 16.9563 11.6363 17.1875 11.4818C17.4188 11.3272 17.599 11.1076 17.7055 10.8506C17.8119 10.5937 17.8397 10.3109 17.7855 10.0382C17.7312 9.76537 17.5973 9.5148 17.4006 9.31813C17.204 9.12146 16.9534 8.98753 16.6806 8.93327C16.4078 8.87901 16.1251 8.90686 15.8681 9.0133C15.6111 9.11973 15.3915 9.29997 15.237 9.53123C15.0825 9.76249 15 10.0344 15 10.3125C15.0004 10.6853 15.1487 11.0428 15.4123 11.3064C15.676 11.57 16.0334 11.7183 16.4063 11.7188ZM16.4063 9.84375C16.499 9.84375 16.5896 9.87124 16.6667 9.92275C16.7438 9.97426 16.8038 10.0475 16.8393 10.1331C16.8748 10.2188 16.8841 10.313 16.866 10.4039C16.8479 10.4949 16.8033 10.5784 16.7377 10.644C16.6722 10.7095 16.5886 10.7542 16.4977 10.7722C16.4068 10.7903 16.3125 10.781 16.2269 10.7456C16.1412 10.7101 16.068 10.65 16.0165 10.5729C15.965 10.4958 15.9375 10.4052 15.9375 10.3125C15.9376 10.1882 15.9871 10.0691 16.0749 9.9812C16.1628 9.89332 16.282 9.84389 16.4063 9.84375Z" fill="#004FAC"/>
</svg>
