<svg width="40" height="40" viewBox="0 0 40 40" fill="none" xmlns="http://www.w3.org/2000/svg">
<path d="M30.6923 35.37C23.0067 35.37 17.7289 39.3511 14.0256 39.3511C10.3223 39.3511 2.54449 37.2222 2.54449 20.1855C2.54449 3.14888 13.0078 0.647766 17.0812 0.647766C36.1556 0.647766 44.3034 35.37 30.6923 35.37Z" fill="#EFEFEF"/>
<path d="M35.1282 3.89026L36.6996 2.31891L37.4853 3.10458L35.9139 4.67593L35.1282 3.89026Z" fill="#A4AFC1"/>
<path d="M35.5201 7.42499L36.3058 6.63931L37.8772 8.21066L37.0915 8.99634L35.5201 7.42499Z" fill="#A4AFC1"/>
<path d="M31.0032 2.90717L31.7888 2.12149L33.3602 3.69284L32.5745 4.47851L31.0032 2.90717Z" fill="#A4AFC1"/>
<path d="M20.9967 8.71001L23.1845 7.71557C24.4533 7.1389 25.9456 7.75668 26.4356 9.06224L27.28 11.3122C27.5245 11.9633 28.0378 12.4767 28.6889 12.7211L30.9389 13.5656C32.2445 14.0556 32.8622 15.5478 32.2856 16.8167L31.2911 19.0045C31.0033 19.6378 31.0033 20.3633 31.2911 20.9967L32.2856 23.1845C32.8622 24.4533 32.2445 25.9456 30.9389 26.4356L28.6889 27.28C28.0378 27.5245 27.5245 28.0378 27.28 28.6889L26.4356 30.9389C25.9456 32.2445 24.4533 32.8622 23.1845 32.2856L20.9967 31.2911C20.3633 31.0033 19.6378 31.0033 19.0045 31.2911L16.8167 32.2856C15.5478 32.8622 14.0556 32.2445 13.5656 30.9389L12.7211 28.6889C12.4767 28.0378 11.9633 27.5245 11.3122 27.28L9.06224 26.4356C7.75668 25.9456 7.1389 24.4533 7.71557 23.1845L8.71001 20.9967C8.99779 20.3633 8.99779 19.6378 8.71001 19.0045L7.71557 16.8167C7.1389 15.5478 7.75668 14.0556 9.06224 13.5656L11.3122 12.7211C11.9633 12.4767 12.4767 11.9633 12.7211 11.3122L13.5656 9.06224C14.0556 7.75668 15.5478 7.1389 16.8167 7.71557L19.0045 8.71001C19.6367 8.99779 20.3633 8.99779 20.9967 8.71001Z" fill="#F3F3F1"/>
<path d="M16.1112 16.9445C17.1851 16.9445 18.0556 16.0739 18.0556 15C18.0556 13.9262 17.1851 13.0556 16.1112 13.0556C15.0373 13.0556 14.1667 13.9262 14.1667 15C14.1667 16.0739 15.0373 16.9445 16.1112 16.9445Z" fill="#5797EF"/>
<path d="M23.8888 26.9445C24.9627 26.9445 25.8333 26.0739 25.8333 25C25.8333 23.9262 24.9627 23.0556 23.8888 23.0556C22.815 23.0556 21.9444 23.9262 21.9444 25C21.9444 26.0739 22.815 26.9445 23.8888 26.9445Z" fill="#5797EF"/>
<path d="M16.0656 30.9367L15.2211 28.6867C14.9767 28.0356 14.4633 27.5222 13.8122 27.2778L11.5622 26.4334C10.2567 25.9434 9.6389 24.4511 10.2156 23.1822L11.21 20.9945C11.4978 20.3611 11.4978 19.6356 11.21 19.0022L10.2156 16.8145C9.6389 15.5456 10.2567 14.0534 11.5622 13.5634L13.8122 12.7189C14.4633 12.4745 14.9767 11.9611 15.2211 11.31L16.0656 9.06003C16.2667 8.52225 16.6433 8.11114 17.0989 7.84225L16.8167 7.71447C15.5478 7.1378 14.0556 7.75558 13.5656 9.06114L12.7211 11.3111C12.4767 11.9622 11.9633 12.4756 11.3122 12.72L9.06224 13.5645C7.75668 14.0545 7.1389 15.5467 7.71557 16.8156L8.71001 19.0034C8.99779 19.6367 8.99779 20.3622 8.71001 20.9956L7.71557 23.1834C7.1389 24.4522 7.75668 25.9445 9.06224 26.4345L11.3122 27.2789C11.9633 27.5234 12.4767 28.0367 12.7211 28.6878L13.5656 30.9378C14.0556 32.2434 15.5478 32.8611 16.8167 32.2845L17.0989 32.1567C16.6433 31.8867 16.2667 31.4745 16.0656 30.9367Z" fill="#D5DBE1"/>
<path d="M15.8199 33.3322C15.3977 33.3322 14.9754 33.25 14.5799 33.0867C13.7532 32.7445 13.0988 32.0678 12.7854 31.23L11.941 28.9811C11.781 28.5545 11.4454 28.2189 11.0199 28.0589L8.76989 27.2145C7.93322 26.9011 7.25655 26.2467 6.91433 25.42C6.57211 24.5934 6.58766 23.6522 6.95877 22.8378L7.95322 20.6511C8.141 20.2367 8.141 19.7622 7.95322 19.3478L6.95989 17.16C6.58989 16.3467 6.57322 15.4045 6.91544 14.5789C7.25766 13.7534 7.93433 13.0978 8.77211 12.7845L11.021 11.94C11.4477 11.78 11.7832 11.4445 11.9432 11.0189L12.7877 8.76891C13.101 7.93224 13.7554 7.25558 14.5821 6.91335C15.4088 6.57113 16.3499 6.58669 17.1643 6.9578L19.351 7.95224C19.7643 8.13891 20.2388 8.14002 20.6543 7.95224L22.8421 6.9578C23.6566 6.5878 24.5977 6.57224 25.4232 6.91335C26.2499 7.25558 26.9043 7.93224 27.2177 8.77002L28.0621 11.0189C28.2221 11.4456 28.5577 11.7811 28.9832 11.9411L31.2332 12.7856C32.0699 13.0989 32.7466 13.7534 33.0888 14.58C33.431 15.4067 33.4154 16.3478 33.0443 17.1622L32.0499 19.3489C31.8621 19.7634 31.8621 20.2378 32.0499 20.6522L33.0432 22.84C33.4132 23.6534 33.4299 24.5956 33.0877 25.4211C32.7454 26.2467 32.0688 26.9022 31.231 27.2156L28.9821 28.06C28.5554 28.22 28.2199 28.5556 28.0599 28.9811L27.2154 31.2311C26.9021 32.0678 26.2477 32.7445 25.421 33.0867C24.5943 33.4289 23.6532 33.4134 22.8388 33.0422L20.6521 32.0478C20.2377 31.86 19.7632 31.86 19.3488 32.0478L17.161 33.0411C16.7366 33.2356 16.2777 33.3322 15.8199 33.3322ZM15.821 8.33335C15.6166 8.33335 15.4132 8.37335 15.2177 8.45446C14.8099 8.62335 14.4999 8.94335 14.3454 9.35669L13.501 11.6067C13.1721 12.4834 12.481 13.1745 11.6043 13.5034L9.35544 14.3478C8.94211 14.5022 8.62211 14.8122 8.45322 15.22C8.28433 15.6267 8.29211 16.0734 8.47433 16.4734L9.46878 18.6611C9.85655 19.5134 9.85655 20.49 9.46878 21.3422L8.47433 23.53C8.29211 23.9311 8.28433 24.3778 8.45322 24.7845C8.62211 25.1922 8.94211 25.5022 9.35544 25.6567L11.6054 26.5011C12.4821 26.83 13.1732 27.5211 13.5021 28.3978L14.3466 30.6467C14.501 31.06 14.811 31.38 15.2188 31.5489C15.6266 31.7167 16.0699 31.71 16.4721 31.5278L18.6599 30.5334C19.5121 30.1456 20.4888 30.1467 21.341 30.5334L23.5288 31.5278C23.931 31.71 24.3766 31.7167 24.7832 31.5489C25.191 31.38 25.501 31.06 25.6554 30.6467L26.4999 28.3967C26.8288 27.52 27.5199 26.8289 28.3966 26.5L30.6454 25.6556C31.0588 25.5011 31.3788 25.1911 31.5477 24.7834C31.7166 24.3767 31.7088 23.93 31.5266 23.53L30.5321 21.3422C30.1443 20.49 30.1443 19.5134 30.5321 18.6611L31.5266 16.4734C31.7088 16.0722 31.7166 15.6256 31.5477 15.2189C31.3788 14.8111 31.0588 14.5011 30.6454 14.3467L28.3954 13.5022C27.5188 13.1734 26.8277 12.4822 26.4988 11.6056L25.6543 9.35669C25.4999 8.94335 25.1899 8.62335 24.7821 8.45446C24.3754 8.28669 23.9299 8.29224 23.5288 8.47558L21.341 9.47002C20.4888 9.85669 19.5121 9.85669 18.6599 9.47002L16.4721 8.47558C16.2621 8.38002 16.0421 8.33335 15.821 8.33335Z" fill="#25313F"/>
<path d="M16.111 17.7778C14.5799 17.7778 13.3333 16.5311 13.3333 15C13.3333 13.4689 14.5799 12.2222 16.111 12.2222C17.6421 12.2222 18.8888 13.4689 18.8888 15C18.8888 16.5311 17.6421 17.7778 16.111 17.7778ZM16.111 13.8889C15.4988 13.8889 14.9999 14.3878 14.9999 15C14.9999 15.6122 15.4988 16.1111 16.111 16.1111C16.7233 16.1111 17.2221 15.6122 17.2221 15C17.2221 14.3878 16.7233 13.8889 16.111 13.8889Z" fill="#25313F"/>
<path d="M23.8889 27.7778C22.3578 27.7778 21.1111 26.5311 21.1111 25C21.1111 23.4689 22.3578 22.2222 23.8889 22.2222C25.42 22.2222 26.6667 23.4689 26.6667 25C26.6667 26.5311 25.42 27.7778 23.8889 27.7778ZM23.8889 23.8889C23.2767 23.8889 22.7778 24.3878 22.7778 25C22.7778 25.6122 23.2767 26.1111 23.8889 26.1111C24.5011 26.1111 25 25.6122 25 25C25 24.3878 24.5011 23.8889 23.8889 23.8889Z" fill="#25313F"/>
<path d="M15.6716 25.3991L22.8889 13.7362L24.3055 14.6128L17.0882 26.2758L15.6716 25.3991Z" fill="#25313F"/>
</svg>
