<svg width="40" height="40" viewBox="0 0 40 40" fill="none" xmlns="http://www.w3.org/2000/svg">
<path d="M38.7822 22.6167C34.58 16.1822 35.0267 9.58666 33.0011 6.48555C30.9755 3.38444 24.9389 -1.96223 10.6756 7.35444C-3.58778 16.6711 0.0399988 26.7989 2.26889 30.2089C12.7 46.1778 46.2255 34.0122 38.7822 22.6167Z" fill="#EFEFEF"/>
<path d="M16.6667 18.0555C19.2747 18.0555 21.3889 15.9413 21.3889 13.3333C21.3889 10.7253 19.2747 8.61108 16.6667 8.61108C14.0587 8.61108 11.9445 10.7253 11.9445 13.3333C11.9445 15.9413 14.0587 18.0555 16.6667 18.0555Z" fill="#5797EF"/>
<path d="M11.9444 21.9444H21.3889C23.8433 21.9444 25.8333 23.9344 25.8333 26.3888V30.2777H7.5V26.3888C7.5 23.9344 9.49 21.9444 11.9444 21.9444Z" fill="#5797EF"/>
<path opacity="0.3" d="M14.4445 13.3333C14.4445 11.1611 15.92 9.34997 17.9167 8.79997C17.5156 8.68886 17.1022 8.61108 16.6667 8.61108C14.0589 8.61108 11.9445 10.7255 11.9445 13.3333C11.9445 15.9411 14.0589 18.0555 16.6667 18.0555C17.1022 18.0555 17.5156 17.9778 17.9167 17.8666C15.92 17.3166 14.4445 15.5055 14.4445 13.3333Z" fill="black"/>
<path opacity="0.3" d="M14.4445 21.9444H11.9445C9.49 21.9444 7.5 23.9344 7.5 26.3888V30.2777H10V26.3888C10 23.9344 11.99 21.9444 14.4445 21.9444Z" fill="black"/>
<path d="M24.503 4.33881L25.2887 3.55313L26.86 5.12448L26.0743 5.91016L24.503 4.33881Z" fill="#A4AFC1"/>
<path d="M29.0223 8.86102L29.808 8.07535L31.3793 9.6467L30.5936 10.4324L29.0223 8.86102Z" fill="#A4AFC1"/>
<path d="M24.3088 9.64563L25.8802 8.07428L26.6659 8.85995L25.0945 10.4313L24.3088 9.64563Z" fill="#A4AFC1"/>
<path d="M28.8258 5.12933L30.3972 3.55798L31.1828 4.34366L29.6115 5.91501L28.8258 5.12933Z" fill="#A4AFC1"/>
<path d="M16.6666 18.8889C13.6033 18.8889 11.1111 16.3967 11.1111 13.3334C11.1111 10.2701 13.6033 7.77783 16.6666 7.77783C19.73 7.77783 22.2222 10.2701 22.2222 13.3334C22.2222 16.3967 19.73 18.8889 16.6666 18.8889ZM16.6666 9.4445C14.5222 9.4445 12.7778 11.1889 12.7778 13.3334C12.7778 15.4778 14.5222 17.2223 16.6666 17.2223C18.8111 17.2223 20.5555 15.4778 20.5555 13.3334C20.5555 11.1889 18.8111 9.4445 16.6666 9.4445Z" fill="#25313F"/>
<path d="M25.8334 31.1111H7.50002C7.04002 31.1111 6.66669 30.7378 6.66669 30.2778V26.3889C6.66669 23.4789 9.03447 21.1111 11.9445 21.1111H21.3889C24.2989 21.1111 26.6667 23.4789 26.6667 26.3889V30.2778C26.6667 30.7378 26.2934 31.1111 25.8334 31.1111ZM8.33335 29.4444H25V26.3889C25 24.3978 23.38 22.7778 21.3889 22.7778H11.9445C9.95336 22.7778 8.33335 24.3978 8.33335 26.3889V29.4444Z" fill="#25313F"/>
</svg>
