<svg width="30" height="30" viewBox="0 0 30 30" fill="none" xmlns="http://www.w3.org/2000/svg">
<g clip-path="url(#clip0)">
<path d="M24.3724 11.6826H18.5328C18.1145 11.6826 17.7754 11.3435 17.7754 10.9252V10.0587C17.7754 9.64041 18.1145 9.30127 18.5328 9.30127H24.3724C24.7907 9.30127 25.1298 9.64041 25.1298 10.0587V10.9252C25.1298 11.3435 24.7908 11.6826 24.3724 11.6826Z" fill="#F6E266"/>
<path d="M24.3722 9.30127H23.1614C23.5797 9.30127 23.9188 9.64035 23.9188 10.0587V10.9252C23.9188 11.3435 23.5797 11.6826 23.1614 11.6826H24.3722C24.7905 11.6826 25.1297 11.3435 25.1297 10.9252V10.0587C25.1296 9.64041 24.7905 9.30127 24.3722 9.30127Z" fill="#ECBE6B"/>
<path d="M23.7672 28.3516H17.9276C17.5093 28.3516 17.1702 28.0124 17.1702 27.5941V26.7277C17.1702 26.3094 17.5093 25.9702 17.9276 25.9702H23.7672C24.1855 25.9702 24.5246 26.3094 24.5246 26.7277V27.5941C24.5246 28.0124 24.1855 28.3516 23.7672 28.3516Z" fill="#EAB14D"/>
<path d="M23.7669 25.9702H22.5562C22.9745 25.9702 23.3136 26.3093 23.3136 26.7277V27.5941C23.3136 28.0124 22.9745 28.3516 22.5562 28.3516H23.767C24.1853 28.3516 24.5244 28.0124 24.5244 27.5941V26.7277C24.5244 26.3094 24.1853 25.9702 23.7669 25.9702Z" fill="#E49542"/>
<path d="M24.7359 23.5894H18.8964C18.4781 23.5894 18.1389 23.2502 18.1389 22.8319V21.9654C18.1389 21.5471 18.4781 21.208 18.8964 21.208H24.7359C25.1542 21.208 25.4934 21.5471 25.4934 21.9654V22.8319C25.4934 23.2502 25.1542 23.5894 24.7359 23.5894Z" fill="#EAB14D"/>
<path d="M24.7357 21.208H23.5249C23.9432 21.208 24.2823 21.5471 24.2823 21.9654V22.8319C24.2823 23.2502 23.9432 23.5894 23.5249 23.5894H24.7357C25.154 23.5894 25.4932 23.2502 25.4932 22.8319V21.9654C25.4932 21.5471 25.154 21.208 24.7357 21.208Z" fill="#E49542"/>
<path d="M24.2525 18.8262H18.413C17.9947 18.8262 17.6555 18.4871 17.6555 18.0687V17.2023C17.6555 16.784 17.9947 16.4448 18.413 16.4448H24.2525C24.6708 16.4448 25.01 16.784 25.01 17.2023V18.0687C25.01 18.4871 24.6709 18.8262 24.2525 18.8262Z" fill="#EAB14D"/>
<path d="M24.2526 16.4448H23.0417C23.46 16.4448 23.7992 16.7839 23.7992 17.2023V18.0688C23.7992 18.4871 23.46 18.8262 23.0417 18.8262H24.2526C24.6709 18.8262 25.01 18.4871 25.01 18.0688V17.2023C25.01 16.7839 24.6709 16.4448 24.2526 16.4448Z" fill="#E49542"/>
<path d="M23.7672 25.9702H17.9276C17.5093 25.9702 17.1702 25.6311 17.1702 25.2128V24.3463C17.1702 23.928 17.5093 23.5889 17.9276 23.5889H23.7672C24.1855 23.5889 24.5246 23.928 24.5246 24.3463V25.2128C24.5246 25.6312 24.1855 25.9702 23.7672 25.9702Z" fill="#F6E266"/>
<path d="M23.7669 23.5894H22.5562C22.9745 23.5894 23.3136 23.9284 23.3136 24.3468V25.2133C23.3136 25.6316 22.9745 25.9707 22.5562 25.9707H23.767C24.1853 25.9707 24.5244 25.6316 24.5244 25.2133V24.3468C24.5244 23.9284 24.1853 23.5894 23.7669 23.5894Z" fill="#ECBE6B"/>
<path d="M23.7672 21.2075H17.9276C17.5093 21.2075 17.1702 20.8684 17.1702 20.4501V19.5836C17.1702 19.1653 17.5093 18.8262 17.9276 18.8262H23.7672C24.1855 18.8262 24.5246 19.1653 24.5246 19.5836V20.4501C24.5246 20.8685 24.1855 21.2075 23.7672 21.2075Z" fill="#F6E266"/>
<path d="M23.7669 18.8262H22.5562C22.9745 18.8262 23.3136 19.1653 23.3136 19.5836V20.4501C23.3136 20.8684 22.9745 21.2075 22.5562 21.2075H23.767C24.1853 21.2075 24.5244 20.8684 24.5244 20.4501V19.5836C24.5244 19.1653 24.1853 18.8262 23.7669 18.8262Z" fill="#ECBE6B"/>
<path d="M26.9784 16.4449H21.1388C20.7205 16.4449 20.3813 16.1057 20.3813 15.6874V14.8209C20.3813 14.4026 20.7205 14.0635 21.1388 14.0635H26.9784C27.3967 14.0635 27.7358 14.4026 27.7358 14.8209V15.6874C27.7358 16.1057 27.3967 16.4449 26.9784 16.4449Z" fill="#F6E266"/>
<path d="M26.9782 14.0635H25.7673C26.1856 14.0635 26.5248 14.4026 26.5248 14.8209V15.6874C26.5248 16.1057 26.1856 16.4449 25.7673 16.4449H26.9782C27.3965 16.4449 27.7356 16.1057 27.7356 15.6874V14.8209C27.7356 14.4026 27.3965 14.0635 26.9782 14.0635Z" fill="#ECBE6B"/>
<path d="M23.7672 14.064H17.9276C17.5093 14.064 17.1702 13.7248 17.1702 13.3065V12.4401C17.1702 12.0218 17.5093 11.6826 17.9276 11.6826H23.7672C24.1855 11.6826 24.5246 12.0218 24.5246 12.4401V13.3065C24.5246 13.7249 24.1855 14.064 23.7672 14.064Z" fill="#EAB14D"/>
<path d="M23.7669 11.6826H22.5562C22.9745 11.6826 23.3136 12.0217 23.3136 12.4401V13.3065C23.3136 13.7248 22.9745 14.064 22.5562 14.064H23.767C24.1853 14.064 24.5244 13.7248 24.5244 13.3065V12.4401C24.5244 12.0217 24.1853 11.6826 23.7669 11.6826Z" fill="#E49542"/>
<path d="M16.3246 1.6384L14.5461 0.0441211C14.4804 -0.014707 14.3811 -0.014707 14.3154 0.0441211L12.5372 1.6384C12.4608 1.70689 12.345 1.70689 12.2686 1.6384L10.4903 0.0441211C10.4247 -0.014707 10.3253 -0.014707 10.2597 0.0441211L8.4815 1.63834C8.40509 1.70684 8.28937 1.70684 8.21296 1.63834L6.43476 0.0441211C6.36913 -0.014707 6.2697 -0.014707 6.20407 0.0441211L4.42616 1.63834C4.34976 1.70684 4.23397 1.70684 4.15757 1.63834L2.55251 0.199102C2.44124 0.099375 2.2644 0.178301 2.2644 0.327715V29.6723C2.2644 29.8218 2.44124 29.9007 2.55251 29.801L4.15763 28.3617C4.23403 28.2932 4.34981 28.2932 4.42622 28.3617L6.20413 29.9559C6.26976 30.0147 6.36913 30.0147 6.43481 29.9559L8.21296 28.3617C8.28937 28.2932 8.40509 28.2932 8.4815 28.3617L10.2597 29.9559C10.3253 30.0147 10.4247 30.0147 10.4903 29.9559L12.2686 28.3616C12.345 28.2931 12.4608 28.2931 12.5372 28.3616L14.3154 29.9559C14.3811 30.0147 14.4804 30.0147 14.5461 29.9559L16.3246 28.3616C16.401 28.2931 16.5167 28.2931 16.5931 28.3616L18.1989 29.801C18.3101 29.9007 18.4869 29.8218 18.4869 29.6724V0.327598C18.4869 0.178184 18.3101 0.0992578 18.1989 0.198984L16.5931 1.6384C16.5167 1.70689 16.401 1.70689 16.3246 1.6384Z" fill="white"/>
<path d="M17.2629 1.03765V28.962L18.1987 29.8009C18.31 29.9006 18.4868 29.8216 18.4868 29.6722V0.327375C18.4868 0.177961 18.31 0.099035 18.1987 0.198762L17.2629 1.03765Z" fill="#DDEAFB"/>
<path d="M5.59683 9.7649C5.01382 9.7649 4.67029 9.70039 4.13246 9.34853C3.9224 9.21107 3.86357 8.92935 4.00097 8.71935C4.13838 8.50929 4.42009 8.45047 4.63015 8.58787C5.00738 8.83478 5.15978 8.85875 5.64886 8.85576C6.16091 8.85236 6.45804 8.47062 6.5174 8.11736C6.54705 7.94099 6.55876 7.5105 6.02832 7.32306C5.27996 7.05857 4.84777 6.85109 4.53664 6.60693C4.1665 6.31666 3.9974 5.81328 4.09531 5.29326C4.20201 4.72695 4.59629 4.27636 5.12427 4.11728C6.12482 3.81593 7.10597 4.29863 7.14722 4.31943C7.37158 4.43199 7.46222 4.70509 7.34966 4.92945C7.23734 5.1534 6.96535 5.2441 6.74099 5.13259C6.72394 5.12422 6.03054 4.79345 5.38642 4.98763C5.14525 5.06023 5.02273 5.28002 4.98863 5.46148C4.95423 5.64388 4.99701 5.81275 5.09761 5.89168C5.38027 6.11345 5.87978 6.3064 6.33119 6.46595C7.11347 6.74246 7.54853 7.46662 7.41382 8.268C7.2896 9.00681 6.64554 9.7581 5.65484 9.76472C5.63533 9.76484 5.61593 9.7649 5.59683 9.7649Z" fill="#2B4D66"/>
<path d="M5.65202 10.4668C5.40101 10.4668 5.19751 10.2634 5.19751 10.0123V3.83146C5.19751 3.58045 5.40095 3.37695 5.65202 3.37695C5.90304 3.37695 6.10653 3.58039 6.10653 3.83146V10.0123C6.10653 10.2634 5.9031 10.4668 5.65202 10.4668Z" fill="#2B4D66"/>
<path d="M13.0688 6.36752H10.936C10.6849 6.36752 10.4814 6.16408 10.4814 5.91301C10.4814 5.66199 10.6849 5.4585 10.936 5.4585H13.0688C13.3198 5.4585 13.5233 5.66193 13.5233 5.91301C13.5233 6.16402 13.3198 6.36752 13.0688 6.36752Z" fill="#2B4D66"/>
<path d="M15.4928 8.56723H10.936C10.6849 8.56723 10.4814 8.36379 10.4814 8.11271C10.4814 7.8617 10.6849 7.6582 10.936 7.6582H15.4928C15.7438 7.6582 15.9473 7.86164 15.9473 8.11271C15.9473 8.36373 15.7438 8.56723 15.4928 8.56723Z" fill="#2B4D66"/>
<path d="M14.3969 14.3421H6.35441C6.1034 14.3421 5.8999 14.1387 5.8999 13.8876C5.8999 13.6365 6.10334 13.4331 6.35441 13.4331H14.3969C14.6479 13.4331 14.8514 13.6365 14.8514 13.8876C14.8514 14.1387 14.6479 14.3421 14.3969 14.3421Z" fill="#2B4D66"/>
<path d="M14.3969 17.266H6.35441C6.1034 17.266 5.8999 17.0625 5.8999 16.8114C5.8999 16.5604 6.10334 16.3569 6.35441 16.3569H14.3969C14.6479 16.3569 14.8514 16.5604 14.8514 16.8114C14.8514 17.0625 14.6479 17.266 14.3969 17.266Z" fill="#2B4D66"/>
<path d="M14.3969 20.1898H6.35441C6.1034 20.1898 5.8999 19.9863 5.8999 19.7353C5.8999 19.4843 6.10334 19.2808 6.35441 19.2808H14.3969C14.6479 19.2808 14.8514 19.4842 14.8514 19.7353C14.8514 19.9863 14.6479 20.1898 14.3969 20.1898Z" fill="#2B4D66"/>
<path d="M14.3969 23.1131H6.35441C6.1034 23.1131 5.8999 22.9097 5.8999 22.6586C5.8999 22.4076 6.10334 22.2041 6.35441 22.2041H14.3969C14.6479 22.2041 14.8514 22.4075 14.8514 22.6586C14.8514 22.9097 14.6479 23.1131 14.3969 23.1131Z" fill="#2B4D66"/>
<path d="M15.4929 27.1527C18.0227 27.1527 20.0736 25.1018 20.0736 22.572C20.0736 20.0421 18.0227 17.9912 15.4929 17.9912C12.963 17.9912 10.9121 20.0421 10.9121 22.572C10.9121 25.1018 12.963 27.1527 15.4929 27.1527Z" fill="#F6E266"/>
<path d="M15.4928 17.9912C15.1716 17.9912 14.8582 18.0246 14.5557 18.0875C16.636 18.52 18.1992 20.3633 18.1992 22.572C18.1992 24.7806 16.636 26.6238 14.5557 27.0564C14.8582 27.1194 15.1716 27.1527 15.4928 27.1527C18.0227 27.1527 20.0735 25.1019 20.0735 22.572C20.0735 20.0421 18.0227 17.9912 15.4928 17.9912Z" fill="#ECBE6B"/>
</g>
<defs>
<clipPath id="clip0">
<rect width="30" height="30" fill="white"/>
</clipPath>
</defs>
</svg>
