<svg width="23" height="30" viewBox="0 0 23 30" fill="none" xmlns="http://www.w3.org/2000/svg">
<path d="M20.7 2.34375H2.3C1.03184 2.34375 0 3.39521 0 4.6875V27.6562C0 28.9485 1.03184 30 2.3 30H20.7C21.9682 30 23 28.9485 23 27.6562V4.6875C23 3.39521 21.9682 2.34375 20.7 2.34375Z" fill="#996459"/>
<path d="M20.6776 4.21875C20.9443 4.21875 21.1606 4.43719 21.1606 4.70666V27.6371C21.1606 27.9066 20.9443 28.1251 20.6776 28.1251H2.32358C2.05683 28.1251 1.84058 27.9066 1.84058 27.6371V4.7066C1.84058 4.43719 2.05683 4.21875 2.32358 4.21875H20.6776Z" fill="white"/>
<path d="M8.27912 12.6562H5.51912C5.01197 12.6562 4.59912 12.2355 4.59912 11.7188V8.90625C4.59912 8.38945 5.01197 7.96875 5.51912 7.96875H8.27912C8.78627 7.96875 9.19912 8.38945 9.19912 8.90625V11.7188C9.19912 12.2355 8.78627 12.6562 8.27912 12.6562ZM5.51912 8.90625V11.7188H8.28004L8.27912 8.90625H5.51912Z" fill="#B4B6BC"/>
<path d="M11.9608 9.375H10.5808C10.3266 9.375 10.1208 9.16535 10.1208 8.90625C10.1208 8.64715 10.3266 8.4375 10.5808 8.4375H11.9608C12.2151 8.4375 12.4208 8.64715 12.4208 8.90625C12.4208 9.16535 12.2151 9.375 11.9608 9.375Z" fill="#5C546A"/>
<path d="M17.4808 11.25H10.5808C10.3266 11.25 10.1208 11.0404 10.1208 10.7812C10.1208 10.5221 10.3266 10.3125 10.5808 10.3125H17.4808C17.7351 10.3125 17.9408 10.5221 17.9408 10.7812C17.9408 11.0404 17.7351 11.25 17.4808 11.25Z" fill="#868491"/>
<path d="M15.1808 15.9375H10.5808C10.3266 15.9375 10.1208 15.7279 10.1208 15.4687C10.1208 15.2096 10.3266 15 10.5808 15H15.1808C15.4351 15 15.6408 15.2096 15.6408 15.4687C15.6408 15.7279 15.4351 15.9375 15.1808 15.9375Z" fill="#5C546A"/>
<path d="M17.4808 17.8125H10.5808C10.3266 17.8125 10.1208 17.6029 10.1208 17.3437C10.1208 17.0846 10.3266 16.875 10.5808 16.875H17.4808C17.7351 16.875 17.9408 17.0846 17.9408 17.3437C17.9408 17.6029 17.7351 17.8125 17.4808 17.8125Z" fill="#868491"/>
<path d="M12.4208 22.0312H10.5808C10.3266 22.0312 10.1208 21.8216 10.1208 21.5625C10.1208 21.3034 10.3266 21.0938 10.5808 21.0938H12.4208C12.6751 21.0938 12.8808 21.3034 12.8808 21.5625C12.8808 21.8216 12.6751 22.0312 12.4208 22.0312Z" fill="#5C546A"/>
<path d="M17.4808 23.9062H10.5808C10.3266 23.9062 10.1208 23.6966 10.1208 23.4375C10.1208 23.1784 10.3266 22.9688 10.5808 22.9688H17.4808C17.7351 22.9688 17.9408 23.1784 17.9408 23.4375C17.9408 23.6966 17.7351 23.9062 17.4808 23.9062Z" fill="#868491"/>
<path d="M13.3404 2.34375C13.0862 2.34375 12.8804 2.1341 12.8804 1.875V1.40625C12.8804 1.14762 12.6742 0.9375 12.4204 0.9375H10.5804C10.3266 0.9375 10.1204 1.14762 10.1204 1.40625V1.875C10.1204 2.1341 9.9147 2.34375 9.66044 2.34375C9.40617 2.34375 9.20044 2.1341 9.20044 1.875V1.40625C9.20044 0.63082 9.81948 0 10.5804 0H12.4204C13.1814 0 13.8004 0.63082 13.8004 1.40625V1.875C13.8004 2.1341 13.5947 2.34375 13.3404 2.34375Z" fill="#868491"/>
<path d="M16.5583 1.40625H6.43827C6.18424 1.40625 5.97827 1.61613 5.97827 1.875V3.28125C5.97827 4.57564 7.00804 5.625 8.27827 5.625H14.7183C15.9885 5.625 17.0183 4.57564 17.0183 3.28125V1.875C17.0183 1.61613 16.8123 1.40625 16.5583 1.40625Z" fill="#B4B6BC"/>
<path d="M8.27912 18.75H5.51912C5.01197 18.75 4.59912 18.3293 4.59912 17.8125V15C4.59912 14.4832 5.01197 14.0625 5.51912 14.0625H8.27912C8.78627 14.0625 9.19912 14.4832 9.19912 15V17.8125C9.19912 18.3293 8.78627 18.75 8.27912 18.75ZM5.51912 15V17.8125H8.28004L8.27912 15H5.51912Z" fill="#B4B6BC"/>
<path d="M8.27912 24.8438H5.51912C5.01197 24.8438 4.59912 24.423 4.59912 23.9062V21.0938C4.59912 20.577 5.01197 20.1562 5.51912 20.1562H8.27912C8.78627 20.1562 9.19912 20.577 9.19912 21.0938V23.9062C9.19912 24.423 8.78627 24.8438 8.27912 24.8438ZM5.51912 21.0938V23.9062H8.28004L8.27912 21.0938H5.51912Z" fill="#B4B6BC"/>
<path d="M7.35826 17.3438C7.24055 17.3438 7.12285 17.298 7.03304 17.2064L6.11304 16.269C5.93335 16.0858 5.93335 15.7892 6.11304 15.6061C6.29272 15.423 6.58385 15.423 6.76353 15.6061L7.35826 16.2122L9.33304 14.1998C9.51272 14.0167 9.80385 14.0167 9.98353 14.1998C10.1632 14.3829 10.1632 14.6795 9.98353 14.8626L7.68353 17.2064C7.59366 17.298 7.47596 17.3438 7.35826 17.3438Z" fill="#FF4F19"/>
</svg>
