<svg width="26" height="30" viewBox="0 0 26 30" fill="none" xmlns="http://www.w3.org/2000/svg">
<path d="M16.766 23.5741L13.9693 27.6385L13.0789 27.2563L14.1 22.4272L16.766 23.5741Z" fill="#57A4FF"/>
<path d="M23.7734 2.36058L24.6625 2.74238C25.1537 2.95337 25.3807 3.52253 25.1697 4.01349L24.0239 6.68116L21.3564 5.53527L22.5023 2.86784C22.7131 2.37664 23.2822 2.14959 23.7734 2.36058Z" fill="#57A4FF"/>
<path d="M24.8534 2.29791L23.9641 1.91564C23.2275 1.60117 22.3753 1.94139 22.0577 2.67688L20.9118 5.34432L20.3226 6.71607V0.483871C20.3226 0.216655 20.1059 0 19.8387 0H0.483871C0.216655 0 0 0.216655 0 0.483871V29.5161C0 29.7833 0.216655 30 0.483871 30H19.8387C20.1059 30 20.3226 29.7833 20.3226 29.5161V16.5246L24.4688 6.87106L25.6147 4.20339C25.9303 3.46695 25.5896 2.61427 24.8534 2.29791ZM19.3548 29.0323H0.967742V0.967742H19.3548V8.9691L13.6554 22.2387C13.6507 22.2557 13.6469 22.2727 13.6443 22.29C13.6403 22.3041 13.6297 22.3148 13.6264 22.3292L12.6057 27.1573C12.558 27.3831 12.6763 27.6111 12.8885 27.7021L13.7778 28.0844C13.838 28.1101 13.9028 28.1233 13.9685 28.1236C14.1275 28.1233 14.2763 28.0451 14.3666 27.914L17.1658 23.8495C17.1736 23.838 17.1746 23.8228 17.1812 23.8103C17.1925 23.7962 17.2027 23.7813 17.2117 23.7659L19.3548 18.7776V29.0323ZM14.4509 23.1072L16.0341 23.7846L13.795 27.0382L13.6346 26.9694L14.4509 23.1072ZM16.5135 22.9399L14.7354 22.1758L21.6102 6.17077L22.4995 6.55258L23.3888 6.93485L16.5135 22.9399ZM24.7259 3.82253L23.7706 6.04555L21.992 5.28147L22.947 3.05892C23.0529 2.81392 23.3373 2.70098 23.5823 2.80636L24.4719 3.18863C24.7166 3.29401 24.83 3.57729 24.7259 3.82253Z" fill="#004FAC"/>
<path d="M8.22581 6.77438H16.9355C17.2027 6.77438 17.4194 6.55773 17.4194 6.29051C17.4194 6.0233 17.2027 5.80664 16.9355 5.80664H8.22581C7.9586 5.80664 7.74194 6.0233 7.74194 6.29051C7.74194 6.55773 7.9586 6.77438 8.22581 6.77438Z" fill="#004FAC"/>
<path d="M3.38719 6.77438H6.77429C7.0415 6.77438 7.25816 6.55773 7.25816 6.29051C7.25816 6.0233 7.0415 5.80664 6.77429 5.80664H3.38719C3.11998 5.80664 2.90332 6.0233 2.90332 6.29051C2.90332 6.55773 3.11998 6.77438 3.38719 6.77438Z" fill="#004FAC"/>
<path d="M3.38719 8.70944H16.9356C17.2028 8.70944 17.4194 8.49279 17.4194 8.22557C17.4194 7.95835 17.2028 7.7417 16.9356 7.7417H3.38719C3.11998 7.7417 2.90332 7.95835 2.90332 8.22557C2.90332 8.49279 3.11998 8.70944 3.38719 8.70944Z" fill="#004FAC"/>
<path d="M16.9354 9.67725H13.5483C13.2811 9.67725 13.0645 9.8939 13.0645 10.1611C13.0645 10.4283 13.2811 10.645 13.5483 10.645H16.9354C17.2026 10.645 17.4193 10.4283 17.4193 10.1611C17.4193 9.8939 17.2026 9.67725 16.9354 9.67725Z" fill="#004FAC"/>
<path d="M3.38719 10.645H11.613C11.8802 10.645 12.0969 10.4283 12.0969 10.1611C12.0969 9.8939 11.8802 9.67725 11.613 9.67725H3.38719C3.11998 9.67725 2.90332 9.8939 2.90332 10.1611C2.90332 10.4283 3.11998 10.645 3.38719 10.645Z" fill="#004FAC"/>
<path d="M3.38719 12.5805H16.9356C17.2028 12.5805 17.4194 12.3639 17.4194 12.0967C17.4194 11.8294 17.2028 11.6128 16.9356 11.6128H3.38719C3.11998 11.6128 2.90332 11.8294 2.90332 12.0967C2.90332 12.3639 3.11998 12.5805 3.38719 12.5805Z" fill="#004FAC"/>
<path d="M11.613 13.5483H3.38719C3.11998 13.5483 2.90332 13.765 2.90332 14.0322C2.90332 14.2994 3.11998 14.5161 3.38719 14.5161H11.613C11.8802 14.5161 12.0969 14.2994 12.0969 14.0322C12.0969 13.765 11.8802 13.5483 11.613 13.5483Z" fill="#004FAC"/>
<path d="M13.0644 14.5161H14.0322C14.2994 14.5161 14.5161 14.2994 14.5161 14.0322C14.5161 13.765 14.2994 13.5483 14.0322 13.5483H13.0644C12.7972 13.5483 12.5806 13.765 12.5806 14.0322C12.5806 14.2994 12.7972 14.5161 13.0644 14.5161Z" fill="#004FAC"/>
<path d="M9.19364 27.0967H3.38719C3.11998 27.0967 2.90332 27.3133 2.90332 27.5806C2.90332 27.8478 3.11998 28.0644 3.38719 28.0644H9.19364C9.46086 28.0644 9.67751 27.8478 9.67751 27.5806C9.67751 27.3133 9.46086 27.0967 9.19364 27.0967Z" fill="#004FAC"/>
<path d="M11.613 27.0967H10.6452C10.378 27.0967 10.1614 27.3133 10.1614 27.5806C10.1614 27.8478 10.378 28.0644 10.6452 28.0644H11.613C11.8802 28.0644 12.0969 27.8478 12.0969 27.5806C12.0969 27.3133 11.8802 27.0967 11.613 27.0967Z" fill="#004FAC"/>
</svg>
