<svg width="30" height="30" viewBox="0 0 30 30" fill="none" xmlns="http://www.w3.org/2000/svg">
<path d="M26.9586 17.2327L25.8484 16.6756C24.5812 16.0398 23.0429 16.8488 22.9405 18.2051L22.7524 20.696" fill="#E8A87C"/>
<path d="M23.0084 1.41406H18.5347V7.60323H23.0084V1.41406Z" fill="#992D26"/>
<path d="M23.009 2.61719H19.9517V7.60422H23.009V2.61719Z" fill="#B5423C"/>
<path d="M23.0089 8.2793V24.3009H6.50439V8.2793L11.4194 4.11374L14.7566 1.28516L18.0953 4.11512L23.0089 8.2793Z" fill="#E0E2E2"/>
<path d="M23.0089 8.27904V12.1595L14.7566 5.79332L6.50439 12.1595V8.27904L11.4194 4.11347L14.7566 1.53906L18.0953 4.11485L23.0089 8.27904Z" fill="#CCCCCC"/>
<path d="M5.34155 11.5171L3.14575 8.95661L14.7565 0L26.3671 8.95661L24.1713 11.5171L14.7565 4.25426L5.34155 11.5171Z" fill="#FB4A75"/>
<path d="M18.5775 11.4121H10.9348V18.6607H18.5775V11.4121Z" fill="#FDBC69"/>
<path d="M10.1895 10.7051V19.3684H19.3236V10.7051H10.1895ZM17.8324 13.6987H16.248V12.1195H17.8324V13.6987ZM11.6808 12.1195H14.7567V17.9539H11.6808V12.1195ZM16.2479 17.9539V15.1132H17.8322V17.9539H16.2479Z" fill="#FB4A75"/>
<path d="M23.5675 0H17.9753V1.86572H23.5675V0Z" fill="#E0E2E2"/>
<path d="M19.2227 0H17.9753V1.86572H19.2227V0Z" fill="#CCCCCC"/>
<path d="M29.4341 19.7885L21.7222 26.9293C20.9475 27.647 19.9254 28.0761 18.8436 28.1373L7.98086 28.7551C7.97602 28.7557 7.97118 28.7557 7.96634 28.7564C7.32259 28.7971 6.74396 29.1455 6.40023 29.6634L6.17707 29.9999C5.92413 29.8599 5.67604 29.7133 5.43212 29.5609C3.19667 28.1649 1.32981 26.2813 0 24.0697L1.47047 22.2137L1.56955 22.3103L3.58881 19.5407C4.59704 18.1559 6.21653 17.2548 7.98908 17.1747C8.06117 17.172 8.13319 17.1694 8.20462 17.1688L17.9739 17.0571C18.3322 17.0538 18.6621 17.1629 18.9275 17.3482C18.9905 17.3922 19.0508 17.4422 19.1063 17.4948C19.4036 17.7767 19.5823 18.1697 19.5671 18.6009C19.54 19.3784 18.8887 20.0061 18.0696 20.0429L11.9605 20.3262C11.5822 20.3433 11.2461 20.4958 10.9994 20.7297C10.6945 21.019 10.5254 21.4336 10.5815 21.8746C10.5892 21.9338 10.601 21.9923 10.6155 22.0501H10.6161C10.7825 22.6778 11.3937 23.1221 12.0935 23.0938L19.1132 22.8132C19.7368 22.7875 20.3335 22.5628 20.8047 22.175L26.8882 17.1662C27.5887 16.5905 28.6171 16.5891 29.3177 17.1393C29.3634 17.1741 29.4077 17.2122 29.45 17.253L29.4597 17.2622C30.1901 17.9653 30.1783 19.0977 29.4341 19.7885Z" fill="#E8A87C"/>
<path d="M28.8526 18.9912L21.1407 26.1327C20.366 26.8503 19.3431 27.2795 18.2615 27.3406L7.39938 27.9585H7.39381C6.83389 27.9749 6.3121 28.2346 6.01346 28.6847L5.80907 28.993L5.43212 29.5609C3.19667 28.1649 1.32981 26.2813 0 24.0697L0.634068 23.2699L1.47047 22.2137L3.58887 19.5407C4.59711 18.1559 6.2166 17.2548 7.98915 17.1747C8.06124 17.172 8.13326 17.1694 8.20468 17.1688L17.974 17.0571C18.3323 17.0538 18.6621 17.1628 18.9275 17.3482C18.9698 17.4928 18.9913 17.6453 18.9858 17.8044C18.9587 18.5812 18.3073 19.2088 17.4883 19.2463L11.3792 19.5296C11.0009 19.5467 10.6648 19.6985 10.4174 19.9332C10.1125 20.2224 9.94408 20.6371 10.0002 21.0781C10.0515 21.4842 10.2844 21.8306 10.6156 22.0501H10.6163C10.7826 22.6778 11.3938 23.1221 12.0936 23.0938L19.1133 22.8132C19.7369 22.7875 20.3336 22.5628 20.8048 22.175L26.8883 17.1662C27.5889 16.5905 28.6172 16.5891 29.3178 17.1393C29.5442 17.7688 29.3883 18.4943 28.8526 18.9912Z" fill="#FEC495"/>
</svg>
