<svg width="30" height="30" viewBox="0 0 30 30" fill="none" xmlns="http://www.w3.org/2000/svg">
<g clip-path="url(#clip0)">
<path d="M14.9314 0C11.9543 0 9.54102 2.41333 9.54102 5.39062V7.56203C9.90128 7.22809 10.5346 7.04659 11.0349 7.11342V6.84471C11.0349 6.63116 11.2171 6.46248 11.4286 6.4785C13.5128 6.62819 15.513 5.96603 17.1168 4.91844C17.2665 4.82048 17.4647 4.84497 17.5862 4.97566C18.9574 6.44943 18.8284 6.39244 18.8284 6.5847V7.11227C19.3768 7.02988 19.984 7.19948 20.322 7.51373V5.39062C20.322 2.41333 17.9087 0 14.9314 0Z" fill="#576574"/>
<path d="M11.3519 5.39062C11.3519 2.72209 13.291 0.506744 15.8371 0.0762176C15.5425 0.0263214 15.2402 0 14.9314 0C11.9543 0 9.54102 2.41333 9.54102 5.39062V7.56203C9.90128 7.22809 10.5346 7.04659 11.0349 7.11342V6.84471C11.0349 6.65749 11.175 6.50482 11.3519 6.48079V5.39062Z" fill="#3E4B5A"/>
<path d="M10.9671 9.9245V6.88861C10.0314 6.76387 9.05298 7.48187 9.05298 8.45531C9.05298 9.40769 9.89297 10.1857 10.9694 10.0227C10.9687 9.98996 10.9671 9.95723 10.9671 9.9245Z" fill="#FFBEAB"/>
<path d="M10.9671 9.58461C10.67 9.29485 10.4917 8.89362 10.4917 8.45531C10.4917 8.02981 10.6787 7.6533 10.9671 7.37452V6.88861C10.0314 6.76387 9.05298 7.48187 9.05298 8.45531C9.05298 9.40769 9.89297 10.1857 10.9694 10.0227C10.9687 9.98996 10.9671 9.95746 10.9671 9.9245V9.58461Z" fill="#F7AF9F"/>
<path d="M18.88 6.87446V9.93712C18.88 9.97031 18.8781 10.003 18.8774 10.0362C19.9612 10.2003 20.8099 9.4171 20.8099 8.45534C20.8099 7.49175 19.9605 6.71241 18.88 6.87446Z" fill="#FFBEAB"/>
<path d="M20.3187 7.30475C19.9676 6.96989 19.4567 6.78793 18.88 6.87445V9.93712C18.88 9.97031 18.8781 10.003 18.8774 10.0362C19.4558 10.1237 19.9674 9.94124 20.3187 9.60593V7.30475Z" fill="#F7AF9F"/>
<path d="M11.9539 16.1734C13.5899 17.9117 16.2669 17.9115 17.9027 16.1734L18.5086 15.5295L17.5745 15.1677C17.3678 15.0876 17.2317 14.8889 17.2317 14.6673V12.9038C16.5935 13.3439 15.8211 13.6026 14.9888 13.6026C14.1182 13.6026 13.3528 13.3634 12.7268 12.9635V14.6481C12.7268 14.8811 12.5835 15.0905 12.3661 15.1748L11.3755 15.5588L11.9539 16.1734Z" fill="#FFBEAB"/>
<path d="M14.5276 13.5798C13.8463 13.5111 13.2397 13.2916 12.7268 12.9639V14.6484C12.7268 14.8817 12.5835 15.0909 12.3661 15.1751L11.3755 15.5592L11.9539 16.1737C12.6705 16.935 13.5867 17.3627 14.5276 17.4573V13.5798Z" fill="#F7AF9F"/>
<path d="M23.1903 17.3424L18.3531 15.4692L17.7299 16.1316C16.1909 17.767 13.6723 17.767 12.133 16.1316L11.5354 15.4967L6.77422 17.3424C6.77422 17.3424 4.57031 18.2486 4.57031 20.761V28.9955C4.57031 29.55 5.02007 29.9998 5.57465 29.9998H24.3899C24.9447 29.9998 25.3944 29.55 25.3944 28.9955V20.761C25.3944 18.2486 23.1903 17.3424 23.1903 17.3424Z" fill="#54A0FF"/>
<path d="M6.38123 28.9957V19.8558C6.38123 18.393 7.12807 17.4754 7.75246 16.9634L6.77422 17.3426C6.77422 17.3426 4.57031 18.2488 4.57031 20.7612V28.9957C4.57031 29.5503 5.02007 30 5.57465 30H7.38579C6.83098 30 6.38123 29.5503 6.38123 28.9957Z" fill="#338DEF"/>
<path d="M8.77386 30.0003V21.6251C8.77386 21.3749 8.5713 21.1724 8.32114 21.1724C8.0712 21.1724 7.86841 21.3749 7.86841 21.6251V30.0003H8.77386Z" fill="#338DEF"/>
<path d="M22.0961 30.0003V21.6251C22.0961 21.3749 21.8933 21.1724 21.6432 21.1724C21.3932 21.1724 21.1904 21.3749 21.1904 21.6251V30.0003H22.0961Z" fill="#338DEF"/>
<path d="M17.5864 4.79488C17.4647 4.66396 17.2664 4.6397 17.1168 4.73766C15.513 5.78526 13.3919 6.44741 11.3077 6.29772C11.0965 6.2817 10.9141 6.45039 10.9141 6.66393V9.8843C10.9141 11.9541 12.5359 13.8444 14.9888 13.8444C17.1726 13.8444 18.949 12.0678 18.949 9.8843V6.40392C18.9492 6.21143 18.9574 6.26843 17.5864 4.79488Z" fill="#FFCDBF"/>
<path d="M12.725 9.88415V6.27881C12.2551 6.32344 11.7806 6.33145 11.3077 6.29758C11.0965 6.28156 10.9141 6.45024 10.9141 6.66379V9.88415C10.9141 11.9539 12.5357 13.8443 14.9888 13.8443C15.2891 13.8443 15.5812 13.8095 15.8625 13.7458C13.9426 13.3343 12.725 11.677 12.725 9.88415Z" fill="#FFBEAB"/>
</g>
<defs>
<clipPath id="clip0">
<rect width="30" height="30" fill="white"/>
</clipPath>
</defs>
</svg>
