<svg width="24" height="21" viewBox="0 0 24 21" fill="none" xmlns="http://www.w3.org/2000/svg">
<path d="M24 5.25V18.75C24 19.375 23.7812 19.9062 23.3438 20.3438C22.9062 20.7812 22.375 21 21.75 21H2.25C1.625 21 1.09375 20.7812 0.65625 20.3438C0.21875 19.9062 0 19.375 0 18.75V5.25C0 4.625 0.21875 4.09375 0.65625 3.65625C1.09375 3.21875 1.625 3 2.25 3H6.375L6.9375 1.45312C7.0625 1.17188 7.21875 0.921875 7.40625 0.703125C7.625 0.484375 7.875 0.3125 8.15625 0.1875C8.4375 0.0625 8.73438 0 9.04688 0H14.9531C15.4219 0 15.8438 0.140625 16.2188 0.421875C16.5938 0.671875 16.875 1.01562 17.0625 1.45312L17.625 3H21.75C22.375 3 22.9062 3.21875 23.3438 3.65625C23.7812 4.09375 24 4.625 24 5.25ZM15.9844 15.9844C17.0781 14.8906 17.625 13.5625 17.625 12C17.625 10.4375 17.0781 9.10938 15.9844 8.01562C14.8906 6.92188 13.5625 6.375 12 6.375C10.4375 6.375 9.10938 6.92188 8.01562 8.01562C6.92188 9.10938 6.375 10.4375 6.375 12C6.375 13.5625 6.92188 14.8906 8.01562 15.9844C9.10938 17.0781 10.4375 17.625 12 17.625C13.5625 17.625 14.8906 17.0781 15.9844 15.9844ZM14.9062 9.09375C15.7188 9.90625 16.125 10.875 16.125 12C16.125 13.125 15.7188 14.0938 14.9062 14.9062C14.0938 15.7188 13.125 16.125 12 16.125C10.875 16.125 9.90625 15.7188 9.09375 14.9062C8.28125 14.0938 7.875 13.125 7.875 12C7.875 10.875 8.28125 9.90625 9.09375 9.09375C9.90625 8.28125 10.875 7.875 12 7.875C13.125 7.875 14.0938 8.28125 14.9062 9.09375Z" fill="#3784FF"/>
</svg>
