<svg width="16" height="15" viewBox="0 0 16 15" fill="none" xmlns="http://www.w3.org/2000/svg">
<path d="M15.0344 12.6843C13.9006 11.726 13.2502 10.3241 13.2502 8.84015V6.75C13.2502 4.11081 11.2895 1.9259 8.75024 1.56033V0.750366C8.75024 0.335358 8.41379 0 7.99988 0C7.58597 0 7.24951 0.335358 7.24951 0.750366V1.56033C4.7092 1.9259 2.74951 4.11081 2.74951 6.75V8.84125C2.74951 10.3252 2.09912 11.726 0.958466 12.6911C0.667053 12.9408 0.499512 13.3042 0.499512 13.6879C0.499512 14.4113 1.08783 15.0007 1.81238 15.0007H14.1874C14.9108 15.0007 15.5002 14.4124 15.5002 13.6879C15.5002 13.3042 15.3327 12.9408 15.0344 12.6843Z" fill="#3784FF"/>
</svg>
