<svg width="32" height="32" viewBox="0 0 32 32" fill="none" xmlns="http://www.w3.org/2000/svg">
<path d="M16.0001 32C7.15728 32 0 24.8339 0 16.0001C0 7.15704 7.15606 0 16.0001 0C24.8432 0 32 7.15606 32 16.0001C32 24.8425 24.8332 32 16.0001 32Z" fill="#66A9DF"/>
<path d="M16.0013 19.75C11.3458 19.75 6.90676 21.7852 3.6626 26.1856C10.1229 33.9945 22.0807 33.9278 28.4538 26.0462C26.8801 24.4807 23.3354 19.75 16.0013 19.75Z" fill="#D6F3FE"/>
<path d="M16 16.9376C12.8982 16.9376 10.375 14.4141 10.375 11.3126V9.43754C10.375 6.33596 12.8982 3.8125 16 3.8125C19.1016 3.8125 21.6251 6.33596 21.6251 9.43754V11.3126C21.6251 14.4141 19.1016 16.9376 16 16.9376Z" fill="#D6F3FE"/>
</svg>
