<svg width="15" height="16" viewBox="0 0 15 16" fill="none" xmlns="http://www.w3.org/2000/svg">
<path d="M1.5 14.5C1.5 15.3438 2.15625 16 3 16H12C12.8125 16 13.5 15.3438 13.5 14.5V4H1.5V14.5ZM10 6.5C10 6.25 10.2188 6 10.5 6C10.75 6 11 6.25 11 6.5V13.5C11 13.7812 10.75 14 10.5 14C10.2188 14 10 13.7812 10 13.5V6.5ZM7 6.5C7 6.25 7.21875 6 7.5 6C7.75 6 8 6.25 8 6.5V13.5C8 13.7812 7.75 14 7.5 14C7.21875 14 7 13.7812 7 13.5V6.5ZM4 6.5C4 6.25 4.21875 6 4.5 6C4.75 6 5 6.25 5 6.5V13.5C5 13.7812 4.75 14 4.5 14C4.21875 14 4 13.7812 4 13.5V6.5ZM14 1H10.25L9.9375 0.4375C9.8125 0.1875 9.5625 0 9.28125 0H5.6875C5.40625 0 5.15625 0.1875 5.03125 0.4375L4.75 1H1C0.71875 1 0.5 1.25 0.5 1.5V2.5C0.5 2.78125 0.71875 3 1 3H14C14.25 3 14.5 2.78125 14.5 2.5V1.5C14.5 1.25 14.25 1 14 1Z" fill="#BBBBBB"/>
</svg>
