<svg width="40" height="40" viewBox="0 0 40 40" fill="none" xmlns="http://www.w3.org/2000/svg">
<rect width="40" height="40" rx="15" fill="#2F79F6"/>
<g clip-path="url(#clip0)">
<path d="M29.125 16.609C28.6411 16.609 28.25 16.217 28.25 15.734V11.5865C28.25 11.1254 27.8746 10.75 27.4143 10.75H23.2668C22.783 10.75 22.3918 10.358 22.3918 9.875C22.3918 9.392 22.783 9 23.2668 9H27.4143C28.8406 9 30 10.1603 30 11.5865V15.734C30 16.217 29.6088 16.609 29.125 16.609Z" fill="white"/>
<path d="M9.875 16.609C9.39113 16.609 9 16.217 9 15.734V11.5865C9 10.1603 10.1594 9 11.5856 9H15.7331C16.217 9 16.6081 9.392 16.6081 9.875C16.6081 10.358 16.217 10.75 15.7331 10.75H11.5856C11.1254 10.75 10.75 11.1254 10.75 11.5865V15.734C10.75 16.217 10.3589 16.609 9.875 16.609Z" fill="white"/>
<path d="M27.4143 30H23.2668C22.783 30 22.3918 29.608 22.3918 29.125C22.3918 28.642 22.783 28.25 23.2668 28.25H27.4143C27.8746 28.25 28.25 27.8746 28.25 27.4135V23.266C28.25 22.783 28.6411 22.391 29.125 22.391C29.6088 22.391 30 22.783 30 23.266V27.4135C30 28.8398 28.8406 30 27.4143 30Z" fill="white"/>
<path d="M15.7331 30H11.5856C10.1594 30 9 28.8398 9 27.4135V23.266C9 22.783 9.39113 22.391 9.875 22.391C10.3589 22.391 10.75 22.783 10.75 23.266V27.4135C10.75 27.8746 11.1254 28.25 11.5856 28.25H15.7331C16.217 28.25 16.6081 28.642 16.6081 29.125C16.6081 29.608 16.217 30 15.7331 30Z" fill="white"/>
<path d="M17.2933 18.7641H12.9375C12.4536 18.7641 12.0625 18.3721 12.0625 17.8891V12.9375C12.0625 12.4545 12.4536 12.0625 12.9375 12.0625H17.2933C17.7771 12.0625 18.1683 12.4545 18.1683 12.9375V17.8891C18.1683 18.3721 17.7762 18.7641 17.2933 18.7641ZM13.8125 17.0141H16.4183V13.8125H13.8125V17.0141Z" fill="white"/>
<path d="M26.0625 26.9375H21.9062C21.4224 26.9375 21.0312 26.5455 21.0312 26.0625V23.2783C21.0312 22.7953 21.4224 22.4032 21.9062 22.4032C22.3901 22.4032 22.7812 22.7953 22.7812 23.2783V25.1875H25.1875V22.5625H24.1533C23.6694 22.5625 23.2783 22.1705 23.2783 21.6875C23.2783 21.2045 23.6694 20.8125 24.1533 20.8125H26.0625C26.5464 20.8125 26.9375 21.2045 26.9375 21.6875V26.0625C26.9375 26.5455 26.5464 26.9375 26.0625 26.9375Z" fill="white"/>
<path d="M26.0625 17.3921H22.4829C21.999 17.3921 21.6079 17.0001 21.6079 16.5171V12.9375C21.6079 12.4545 21.999 12.0625 22.4829 12.0625H26.0625C26.5464 12.0625 26.9375 12.4545 26.9375 12.9375V16.5171C26.9375 17.0001 26.5464 17.3921 26.0625 17.3921ZM23.3579 15.6421H25.1875V13.8125H23.3579V15.6421Z" fill="white"/>
<path d="M19.9182 21.3689H12.9375C12.4536 21.3689 12.0625 20.9769 12.0625 20.4939C12.0625 20.0109 12.4536 19.6189 12.9375 19.6189H19.0432V13.7328C19.0432 13.2498 19.4344 12.8578 19.9182 12.8578C20.4021 12.8578 20.7932 13.2498 20.7932 13.7328V20.4939C20.7932 20.9769 20.4012 21.3689 19.9182 21.3689Z" fill="white"/>
<path d="M22.3437 21.1501C21.8599 21.1501 21.4688 20.7581 21.4688 20.2751V19.0825C21.4688 18.5995 21.8599 18.2075 22.3437 18.2075H26.2812C26.7651 18.2075 27.1562 18.5995 27.1562 19.0825C27.1562 19.5655 26.7651 19.9575 26.2812 19.9575H23.2187V20.2751C23.2187 20.7581 22.8276 21.1501 22.3437 21.1501Z" fill="white"/>
<path d="M19.5193 25.8009C19.0354 25.8009 18.6443 25.4089 18.6443 24.9259V22.9379C18.6443 22.4549 19.0354 22.0629 19.5193 22.0629C20.0032 22.0629 20.3943 22.4549 20.3943 22.9379V24.9259C20.3943 25.4089 20.0032 25.8009 19.5193 25.8009Z" fill="white"/>
<path d="M17.0938 26.9375H12.9375C12.4536 26.9375 12.0625 26.5455 12.0625 26.0625V22.881C12.0625 22.398 12.4536 22.006 12.9375 22.006H17.0938C17.5776 22.006 17.9688 22.398 17.9688 22.881V26.0625C17.9688 26.5455 17.5776 26.9375 17.0938 26.9375ZM13.8125 25.1875H16.2188V23.756H13.8125V25.1875Z" fill="white"/>
</g>
<defs>
<clipPath id="clip0">
<rect width="21" height="21" fill="white" transform="translate(9 9)"/>
</clipPath>
</defs>
</svg>
