<svg width="21" height="21" viewBox="0 0 21 21" fill="none" xmlns="http://www.w3.org/2000/svg">
<path d="M20.4333 9.13399C20.4328 9.13351 20.4324 9.13303 20.4319 9.13255L11.8655 0.566528C11.5004 0.201233 11.015 0 10.4986 0C9.98219 0 9.49673 0.201073 9.13144 0.566368L0.569586 9.12806C0.566702 9.13094 0.563819 9.13399 0.560935 9.13687C-0.188882 9.89101 -0.187601 11.1146 0.56462 11.8668C0.908286 12.2106 1.36218 12.4098 1.84748 12.4306C1.86719 12.4325 1.88705 12.4335 1.90708 12.4335H2.2485V18.7376C2.2485 19.985 3.26348 21 4.51125 21H7.86268C8.20234 21 8.47791 20.7246 8.47791 20.3848V15.4424C8.47791 14.8731 8.94094 14.4101 9.51019 14.4101H11.487C12.0562 14.4101 12.5192 14.8731 12.5192 15.4424V20.3848C12.5192 20.7246 12.7946 21 13.1345 21H16.4859C17.7337 21 18.7486 19.985 18.7486 18.7376V12.4335H19.0652C19.5814 12.4335 20.0669 12.2324 20.4324 11.8671C21.1854 11.1136 21.1857 9.88797 20.4333 9.13399Z" fill="#2F79F6"/>
</svg>
